<svg preserveAspectRatio="xMidYMid meet" data-bbox="10.501 30.5 179 139" viewBox="10.501 30.5 179 139" height="200" width="200" xmlns="http://www.w3.org/2000/svg" data-type="color" role="presentation" aria-hidden="true" aria-label=""><defs><style>#comp-mjnydir4 svg [data-color="1"] {fill: #FFD1E4;}
#comp-mjnydir4 svg [data-color="2"] {fill: #CFE0FF;}
#comp-mjnydir4 svg [data-color="3"] {fill: #48D18E;}</style></defs>
    <g>
        <path d="M56.263 110.726c1.042 1.053-11.214 20.954-42.215 10.525 0-.001 25.964-26.683 42.215-10.525" fill="#fdbae3" data-color="1"></path>
        <path d="M53.336 98.115c-.451 1.41-23.793-.204-28.914-32.466 0 0 35.715 10.597 28.914 32.466" fill="#fdbae3" data-color="1"></path>
        <path d="M121.721 92.517c-.957-.494-2.076-.837-3.242-1.07 1.169-.22 2.292-.55 3.255-1.032.048-.024.129-.037.147-.071.318-.611 1.201-2.156-1.102-3.383-3.023-1.61-9.362 2.951-10.874 4.208a.341.341 0 0 0-.095-.012c.029-.076.042-.122.037-.132-.012-.026-.241.029-.62.153-2.127.147-8.558 1.072-10.49 3.69-1.115 1.51-.204 2.431.568 2.828-.007.788.129 2.245 2.489 2.322 3.247.105 6.714-6.079 7.746-8.25a6.47 6.47 0 0 0 .172-.239l.107.023c1.324 1.157 7.802 6.014 10.906 4.407 2.317-1.199 1.452-2.754 1.142-3.369-.017-.034-.098-.048-.146-.073z" fill="#BDD9D9" data-color="2"></path>
        <path d="M109.939 90.512c.009.003.046-.015.1-.046.03.055.051.089.06.092.017.005.066-.073.138-.215 1.474-.959 7.911-5.87 7.203-9.289-.529-2.552-2.262-2.142-2.939-2.01-.018.003-.035.023-.052.045-.523-1.16-1.577-1.087-2.277-.821-.583-.531-1.759-1.404-3.393.297-2.248 2.342.044 9.049.972 11.267.086.421.16.672.188.68z" fill="#BDD9D9" data-color="2"></path>
        <path d="M108.155 90.738c.411.126.666.181.687.16.007-.007.009-.047.008-.11.063 0 .103-.002.11-.009.012-.012-.033-.093-.123-.224-.137-1.751-1.374-9.745-4.719-10.761-2.497-.759-2.966.957-3.175 1.614-.005.017.004.041.015.067-1.27-.097-1.711.862-1.811 1.603-.746.256-2.077.87-1.363 3.117.982 3.093 7.977 4.295 10.371 4.543z" fill="#BDD9D9" data-color="2"></path>
        <path d="M109.771 91.665c-.163.044-4.15 9.12-1.488 11.972 1.78 1.906 3.047.657 3.557.193.013-.012.018-.038.02-.065 1.525 1.044 2.658-.722 2.73-1.136.009-.054.02-.107.031-.16 1.002-4.807-4.688-10.847-4.85-10.804z" fill="#BDD9D9" data-color="2"></path>
        <path fill="#BDD9D9" d="M130.402 112.042a1.88 1.88 0 1 1-2.787 2.524 1.88 1.88 0 0 1 2.787-2.524z" data-color="2"></path>
        <path fill="#BDD9D9" d="M149.423 115.143a1.88 1.88 0 1 1-2.787 2.524 1.88 1.88 0 0 1 2.787-2.524z" data-color="2"></path>
        <path fill="#BDD9D9" d="M179.313 106.228a1.88 1.88 0 1 1-2.786 2.525 1.88 1.88 0 0 1 2.786-2.525z" data-color="2"></path>
        <path d="M164.017 116.383s12.545 1.129 16.796 7.799c5.39 8.458 7.528 13.06 8.688 12.902 0 0-12.15-2.996-17.99-8.066-6.562-5.695-7.494-12.635-7.494-12.635z" fill="#fdbae3" data-color="1"></path>
        <path d="M163.089 135.083s-4.024-5.886-3.86-9.086l.576-11.199s5.311 9.555 5.229 11.155c-.164 3.2-1.601 5.814-1.945 9.13z" fill="#fdbae3" data-color="1"></path>
        <path d="M144.961 101.8s.776 6.201-3.105 8.915c-1.986 1.388-8.212 4.186-8.212 4.186s-1.104-5.349 2.39-8.837c1.713-1.712 6.799-2.911 8.927-4.264z" fill="#fdbae3" data-color="1"></path>
        <path d="M153.423 114.096s5.011 4.232 4.733 7.943c-.278 3.711-4.675 17.662-4.675 17.662s-2.84-12.173-2.562-15.883c.277-3.711 2.504-9.722 2.504-9.722z" fill="#fdbae3" data-color="1"></path>
        <path d="M126.453 119.572s6.978.8 8.973 3.941c1.995 3.141 6.539 16.701 6.539 16.701s-9.857-8.345-11.852-11.486c-1.996-3.14-3.66-9.156-3.66-9.156z" fill="#fdbae3" data-color="1"></path>
        <path d="M153.494 111.135s-.191-4.653 1.887-6.292c2.078-1.639 11.504-6.049 11.504-6.049s-5.014 7.336-7.092 8.975c-2.079 1.64-6.299 3.366-6.299 3.366z" fill="#fdbae3" data-color="1"></path>
        <path d="M164.943 113.758s9.45 3.693 11.052 3.775 11.473 1.085 11.473 1.085-7.939-7.321-11.144-7.485c-3.204-.164-11.381 2.625-11.381 2.625z" fill="#fdbae3" data-color="1"></path>
        <path d="M161.193 112.739s1.017-4.248 3.534-6.235c5.968-4.712 10.169-8.391 10.169-8.391s-1.128 9.725-7.061 13.328c-1.37.832-6.642 1.298-6.642 1.298z" fill="#fdbae3" data-color="1"></path>
        <path d="M114.239 116.72s.905-4.285 2.977-5.341 10.78-3.086 10.78-3.086-5.77 5.632-7.842 6.688c-2.073 1.056-5.915 1.739-5.915 1.739z" fill="#fdbae3" data-color="1"></path>
        <path d="M138.702 115.857c-.213.548 3.406 1.261 4.797 2.107 1.701 1.034 3.495 8.928 3.495 8.928s-5.269-4.461-6.336-6.14c-1.066-1.679-1.956-4.895-1.956-4.895z" fill="#fdbae3" data-color="1"></path>
        <path d="M115.967 118.907c-.168.432 2.683.994 3.778 1.66 1.34.814 2.753 7.032 2.753 7.032s-4.15-3.514-4.991-4.836c-.839-1.323-1.54-3.856-1.54-3.856z" fill="#fdbae3" data-color="1"></path>
        <path d="M176.276 114.757c-4.552-1.712-10.076-2.817-14.439.063-.024.016-.036.037-.056.055a31.732 31.732 0 0 0-3.121-1.467c3.971-.428 7.518-2.991 10.366-5.723.424-.407-.222-1.051-.645-.644-3.295 3.162-7.636 6.278-12.521 5.386-.03-.006-.055.002-.084.001a20.746 20.746 0 0 0-2.892-.589c1.352-1.688 2.922-3.346 4.646-4.625.466-.346.011-1.137-.46-.787-1.946 1.444-3.709 3.311-5.191 5.221-.019.025-.025.052-.039.077-5.35-.443-10.666 1.073-15.724 3.08-.704.279-1.412.527-2.125.749 1.293-1.478 2.431-3.158 3.386-4.83.291-.51-.496-.969-.788-.46-1.161 2.031-2.584 4.072-4.248 5.724-.01.01-.012.02-.02.03-4.67 1.174-9.512 1.291-14.392 1.086a101.07 101.07 0 0 1-2.857-.166c.481-.568.916-1.172 1.465-1.691 1.895-1.793 4.312-2.937 6.724-3.857.543-.207.307-1.088-.242-.878-2.373.906-4.709 2.001-6.651 3.665-.917.785-1.551 1.76-2.382 2.61-.019.02-.026.042-.04.062-15.907-1.299-31.611-6.304-45.754-13.796 3.016-2.382 5.932-4.87 9.402-6.658 9.411-4.848 19.855-5.839 30.263-5.555.016.242.045.488.104.74.375 1.596 1.488 2.347 2.536 2.456 1.416.148 2.179-2.084 1.804-3.68-.375-1.596-2.137-2.341-3.162-2.101-.649.152-1.096.805-1.243 1.667-8.384-.252-16.904.262-24.847 3.09a58.97 58.97 0 0 0-1.491.554c1.953-2.001 3.574-4.671 4.966-6.741 2.394-3.559 4.279-7.413 5.56-11.506 2.665-8.52 2.899-17.556 2.503-26.403-.026-.584-.938-.587-.912 0 .361 8.079.207 16.28-1.886 24.142-1.079 4.055-2.705 7.932-4.898 11.513-2.094 3.42-4.98 8.564-8.666 10.401-.035.018-.055.042-.082.064-2.338 1.111-4.591 2.425-6.569 3.995-1.45 1.151-2.819 2.388-4.251 3.556a132.711 132.711 0 0 1-9.159-5.423 127.297 127.297 0 0 1-10.119-7.296c.254-1.734.359-3.695-.31-5.308-.221-.534-1.104-.3-.88.242.551 1.329.539 2.926.363 4.394a131.264 131.264 0 0 1-5.979-5.145.5.5 0 0 0-.019-.247c.275-1.783.418-3.837-.278-5.515-.221-.534-1.104-.3-.88.242.592 1.428.537 3.168.324 4.722a135.47 135.47 0 0 1-5.454-5.373c.241-1.581.362-3.394-.253-4.878-.221-.534-1.104-.3-.88.242.475 1.145.476 2.517.332 3.787a141.372 141.372 0 0 1-11.166-13.43c-.343-.468-1.135-.014-.788.46a140.188 140.188 0 0 0 11.281 13.525c-1.169.088-2.447.045-3.444-.465-.522-.267-.984.519-.46.787 1.376.704 3.135.692 4.651.516.026.018.053.029.081.042a137.754 137.754 0 0 0 5.283 5.199c-1.395.072-2.889-.01-4.09-.59-.526-.254-.989.531-.46.787 1.637.789 3.675.809 5.476.643a135.022 135.022 0 0 0 6.351 5.46c-1.519.116-3.215.087-4.548-.559-.526-.255-.989.53-.46.787 1.732.84 3.923.812 5.796.612a.471.471 0 0 0 .178-.056 131.123 131.123 0 0 0 18.768 12.419c-.285.223-.566.451-.859.665-5.602 4.098-11.972 6.507-18.544 8.39-1.499-1.126-3.354-2.261-5.261-2.425-.585-.05-.582.861 0 .911 1.459.125 2.917.959 4.152 1.829a258.49 258.49 0 0 1-6.797 1.758l-.655.16-.01-.011c-1.504-1.133-3.37-2.28-5.289-2.445-.585-.05-.581.861 0 .911 1.457.125 2.914.957 4.148 1.827-2.447.601-4.894 1.197-7.343 1.787-.021-.023-.035-.049-.062-.069-1.342-1.011-3.006-2.029-4.718-2.176-.585-.05-.582.861 0 .911 1.279.11 2.561.844 3.646 1.608-6.058 1.458-12.119 2.907-18.162 4.427-.569.143-.328 1.022.243.878 5.801-1.459 11.689-2.752 17.568-4.103-.437.915-1.013 1.815-1.785 2.354-.478.333-.022 1.123.46.786 1.131-.789 1.886-2.106 2.43-3.395a430.722 430.722 0 0 0 7.83-1.877c-.581 1.297-1.366 2.651-2.46 3.45-.469.343-.014 1.133.46.787 1.464-1.07 2.414-2.846 3.106-4.518a220.12 220.12 0 0 0 7.353-2.005c-.577 1.265-1.35 2.569-2.414 3.347-.469.343-.014 1.133.46.787 1.449-1.059 2.395-2.81 3.085-4.467a152.565 152.565 0 0 0 5.612-1.794c3.787-1.297 7.453-2.92 10.835-5.073 1.334-.849 2.596-1.783 3.834-2.744a126.871 126.871 0 0 0 15.762 7.087c9.622 3.556 20.516 6.542 31.308 7.349 1.945 1.68 3.8 3.449 5.168 5.651.309.497 1.098.04.788-.46-1.21-1.948-2.783-3.576-4.472-5.095 2.734.153 5.458.162 8.149-.001 1.505 1.213 3.105 2.261 4.524 3.595 3.367 3.162 5.905 7.01 7.951 11.127.261.525 1.048.064.788-.46-1.984-3.992-4.429-7.737-7.63-10.867-1.341-1.311-2.837-2.359-4.297-3.49a55.993 55.993 0 0 0 6.093-.83c2.007-.389 3.931-1.036 5.844-1.728.607.473 1.24.91 1.822 1.418 1.416 1.238 2.593 2.68 3.58 4.279.307.498 1.097.041.788-.46-.974-1.578-2.126-3.026-3.505-4.271-.534-.482-1.113-.9-1.682-1.332 2.638-.967 5.279-1.949 8.113-2.388a21.088 21.088 0 0 1 6.424-.003c.143 1.231.541 2.437.792 3.646.656 3.163.749 6.297.281 9.494-.084.573.795.821.88.242.391-2.671.454-5.319.07-7.996-.251-1.747-.882-3.477-1.099-5.227 1.999.39 3.928 1.045 5.782 1.904-.002.023-.012.041-.011.066.105 2.424.656 4.926 1.392 7.231.178.556 1.059.319.88-.242-.672-2.106-1.193-4.384-1.334-6.604 4.788 2.42 9.072 6.136 12.821 9.936.413.418 1.058-.226.645-.644-3.446-3.493-7.151-6.772-11.37-9.193 4.104-2.439 9.15-1.319 13.347.26.549.209.786-.671.241-.876z" fill="#8ed6c1" data-color="3"></path>
        <path d="M116.468 131.513s-24.637-8.753-28.78-7.861c-.7.151-.812.579-.123 1.37.059.068.12.137.191.21 5.8 5.981 15.197 24.51 15.197 24.51l1.363-7.479 7.861.127-3.38-6.912 7.671-3.965z" fill="#fdbae3" data-color="1"></path>
        <path d="M80.099 117.075c-.144-.829-.502-1.099-1.14-.599a4.012 4.012 0 0 0-.502.486c-5.513 6.246-23.268 17.065-23.268 17.065l7.575.765.495 7.834 6.634-3.911 4.564 7.323c0 .001 6.49-24.096 5.642-28.963z" fill="#fdbae3" data-color="1"></path>
        <path d="M85.72 134.282a3.45 3.45 0 0 0-.23.763c-1.623 8.167-11.528 26.429-11.528 26.429l6.934-3.139 4.371 6.525 3.767-6.71 7.631 4.042s-6.363-23.52-9.584-27.728c-.57-.744-1.04-.881-1.361-.182z" fill="#fdbae3" data-color="1"></path>
        <path d="M115.375 137.956c-2.275.033-4.491-1.267-4.491-1.267s7.341 6.334 8.169 2.766c.423-1.825-1.286-1.534-3.678-1.499z" fill="#BDD9D9" data-color="2"></path>
        <path d="M106.309 143.977s1.425 1.881 1.638 3.958c.224 2.184.14 3.772 1.763 3.192 3.173-1.136-3.401-7.15-3.401-7.15z" fill="#BDD9D9" data-color="2"></path>
        <path d="M91.354 165.52c-1.444-1.756-1.807-4.296-1.807-4.296s-.385 9.68 2.926 8.102c1.692-.807.399-1.959-1.119-3.806z" fill="#BDD9D9" data-color="2"></path>
        <path d="M78.828 164.459c-1.571 1.536-2.867 2.461-1.401 3.366 2.868 1.771 3.48-7.112 3.48-7.112s-.585 2.285-2.079 3.746z" fill="#BDD9D9" data-color="2"></path>
        <path d="M69.809 141.195s-2.688 9.309.904 8.565c1.836-.38.856-1.808-.177-3.962-.982-2.05-.727-4.603-.727-4.603z" fill="#BDD9D9" data-color="2"></path>
        <path d="M56.908 138.205c-2.166.379-3.759.408-3.063 1.983 1.36 3.081 6.9-3.896 6.9-3.896s-1.778 1.553-3.837 1.913z" fill="#BDD9D9" data-color="2"></path>
        <path d="M103.584 132.335a178.265 178.265 0 0 0-15.897-8.682c-.7.151-.812.579-.123 1.37a175.513 175.513 0 0 1 15.273 8.366c.706.433 1.456-.618.747-1.054z" fill="#FFFFFF" data-color="4"></path>
        <path d="M85.72 134.282c1.111 4.931 1.14 9.877-.001 14.829-.184.799 1.025 1.257 1.211.45 1.164-5.055 1.223-10.063.15-15.098-.569-.743-1.039-.88-1.36-.181z" fill="#FFFFFF" data-color="4"></path>
        <path d="M78.96 116.477a101.767 101.767 0 0 1-6.78 11.927c-.459.693.595 1.439 1.055.746a103.551 103.551 0 0 0 6.865-12.074c-.145-.829-.502-1.099-1.14-.599z" fill="#FFFFFF" data-color="4"></path>
        <path fill="#FFFFFF" d="M110.077 88.969a.558.558 0 1 1-.005 1.115.558.558 0 0 1 .005-1.115z" data-color="4"></path>
        <path fill="#FFFFFF" d="M110.788 92.074a.558.558 0 1 1-.005 1.115.558.558 0 0 1 .005-1.115z" data-color="4"></path>
        <path fill="#FFFFFF" d="M109.56 90.923a.487.487 0 1 1-.453.862.487.487 0 0 1 .453-.862z" data-color="4"></path>
        <path d="M94.206 48.928c.653.238 1.061.349 1.095.318.011-.01.018-.076.022-.176.101.006.167.005.178-.005.021-.019-.045-.153-.179-.372-.072-2.84-1.386-15.858-6.701-17.784-3.968-1.438-4.873 1.293-5.266 2.336-.009.025 0 .06.014.098-2.045-.267-2.835 1.259-3.062 2.447-1.227.351-3.425 1.23-2.464 4.917 1.322 5.078 12.518 7.616 16.363 8.221z" fill="#fdbae3" data-color="1"></path>
        <path d="M96.447 50.485c.049-.045.113-.112.188-.192 2.719-.839 14.913-5.627 15.33-11.257.312-4.204-2.567-4.334-3.678-4.428-.027-.002-.058.016-.091.04-.297-2.038-1.981-2.384-3.188-2.281-.671-1.085-2.114-2.958-5.408-1.037-4.537 2.646-3.952 14.095-3.494 17.955-.019.252-.031.466-.036.639l-.016.013a.5.5 0 0 0-.123-.129c-.028-.003-.084.135-.157.382-.175.165-.4.388-.661.657l-.221.229c-.016-.016-.064-.035-.155-.058.072-.111.108-.179.104-.196-.008-.033-.223-.037-.597-.009-.127.01-.273.023-.435.04-1.658-.238-4.977-.53-8.413-.371-3.711-.868-7.528-1.099-9.554.687-2.391 2.108-1.852 3.821-1.131 4.898.182.717.686 1.311 1.183 1.719-.279 1.244-.558 3.591 3.143 4.514 3.595.897 8.432-3.118 11.804-6.644l.248-.071c-2.75 3.692-5.345 8.36-4.09 11.465 1.58 3.909 4.22 2.756 5.259 2.351.058-.023.092-.15.139-.223.579-.899 1.067-1.913 1.493-2.982.267-.671.515-1.358.729-2.067.049.538.118 1.07.199 1.595.206 1.342.515 2.631.969 3.796.032.081.039.213.092.247.937.604 3.293 2.261 5.623-1.255 3.023-4.561-3.174-15.244-5.055-18.027zm-2.548 1.666l.202-.26.165-.146c-.119.13-.24.265-.367.406z" fill="#fdbae3" data-color="1"></path>
        <path d="M115.284 57.93c-.005-.026-.031-.051-.063-.077 1.886-.833 1.768-2.546 1.343-3.679.866-.937 2.286-2.828-.453-5.48-3.772-3.652-14.659-.013-18.26 1.465-.682.135-1.088.252-1.101.297a.508.508 0 0 0 .073.162c-.089.047-.145.082-.149.097-.008.027.118.108.347.225 1.54 2.389 9.436 12.83 14.979 11.719 4.14-.832 3.492-3.635 3.284-4.729z" fill="#fdbae3" data-color="1"></path>
        <path d="M95.1 52.876c2.52.838 4.499-.056 5.538-1.404 1.405-1.822-1.025-4.764-3.545-5.603-2.52-.839-5.042.952-5.58 2.566-.54 1.614 1.067 3.602 3.587 4.441z" fill="#8ed6c1" data-color="3"></path>
        <path fill="#FFFFFF" d="M94.538 47.458a.901.901 0 1 1-.955 1.528.901.901 0 0 1 .955-1.528z" data-color="4"></path>
        <path fill="#FFFFFF" d="M99.423 49.113a.901.901 0 1 1-.955 1.528.901.901 0 0 1 .955-1.528z" data-color="4"></path>
        <path fill="#FFFFFF" d="M96.632 50.393a.788.788 0 1 1-1.355.803.788.788 0 0 1 1.355-.803z" data-color="4"></path>
    </g>
</svg>