<svg preserveAspectRatio="xMidYMid meet" data-bbox="21.5 20.001 157.001 160" viewBox="21.5 20.001 157.001 160" height="200" width="200" xmlns="http://www.w3.org/2000/svg" data-type="color" role="presentation" aria-hidden="true" aria-label=""><defs><style>#comp-mjnynrbf svg [data-color="2"] {fill: #48D18E;}
                    #comp-mjnynrbf svg [data-color="3"] {fill: #FFD1E4;}
                    #comp-mjnynrbf svg [data-color="4"] {fill: #FF8683;}</style></defs>
                        <g>
                            <path fill="#8ed6c1" d="M89.475 78.372c-.027-1.599-.252-3.144-1.217-4.596-1.417-2.133-3.669-3.856-6.018-4.826-3.191-1.319-6.436-1.521-9.84-1.042-1.836.259-3.611.863-5.449 1.104-2.983.391-7.882.631-10.442-1.281.849 1.154 1.893 2.054 2.656 3.3 1.153 1.885 2.04 3.901 3.039 5.864 1.366 2.683 2.553 5.746 4.835 7.802 2.641 2.38 6.514 3.327 9.968 3.548 3.489.223 10.901.494 12.071-3.69.28-1.001.347-1.883.346-2.952 0-1.092.068-2.174.05-3.231Z" data-color="1"></path>
                            <path fill="#055357" d="M66.989 73.839c.132.05.265.098.399.153.472.193.959.371 1.427.57.37.157.765.258 1.152.368.259.075.521.161.783.218.157.034.309.056.465.096.4.103.797.22 1.194.328.534.146 1.048.328 1.574.482.436.129.869.262 1.296.407.609.205 1.213.38 1.816.579.779.261 1.561.524 2.323.871q.279.133.553.276l.542.303c.29.167.601.319.86.535.207.174.393.333.622.487a208 208 0 0 1 2.62 1.774l1.266.858.638.422.323.209c.026.017.185.105.213.136a27 27 0 0 1-1.245-1.467 8 8 0 0 0-.379-.453c-.46-.519-.998-1.072-1.584-1.488-.262-.189-.455-.4-.686-.616a8 8 0 0 0-.988-.77c-.25-.172-.517-.304-.775-.462-.24-.152-.485-.299-.719-.461-.291-.19-.595-.355-.894-.532a14 14 0 0 0-1.384-.721c-1.104-.512-2.245-.914-3.382-1.27-.385-.12-.771-.249-1.16-.34-.248-.057-.5-.096-.748-.147-.7-.145-1.381-.334-2.077-.453-.447-.076-.888-.209-1.332-.282-.47-.076-.928-.147-1.399-.253-.466-.105-.917-.245-1.378-.379-.245-.072-.487-.127-.733-.184a12 12 0 0 1-1.389-.416c-.718-.259-1.453-.46-2.18-.681-.481-.146-.968-.266-1.447-.424-.097-.032-.209-.062-.3-.11.211.064.403.22.601.312.322.151.622.35.947.49.664.286 1.361.511 2.023.804.709.314 1.373.691 2.065 1.03.158.077.317.139.477.201" data-color="2"></path>
                            <path fill="#8ed6c1" d="M75.142 142.416c-2.699-1.674-5.632.094-7.553 1.965-2.742 2.67-3.772 5.859-4.158 9.602-.669 6.495-1.312 12.949-2.371 19.381.604.104 1.298-.489 1.89-.774 1.079-.52 2.149-.73 3.297-1.04 2.803-.756 5.586-1.777 8.088-3.279 4.2-2.522 7.669-6.315 7.576-11.428.014.766-.328 1.453-.513 2.183-.663 2.625-1.105 5.431-.641 8.13.581 3.377 2.476 6.228 4.785 8.665 1.281 1.353 3.018 2.539 3.952 4.18-.511-2.986 2.159-5.89 3.923-7.896 3.664-4.165 6.382-9.436 6.472-15.127.038-2.389-.313-4.971-1.755-6.949-1.129-1.549-2.377-1.279-4.113-1.457-3.976-.407-8.337-1.107-12.069-2.599-1.702-.681-4.871-1.673-6.81-3.556Z" data-color="1"></path>
                            <path fill="#055357" d="M73.283 155.445c.442-.886.936-1.761 1.407-2.619.368-.671.763-1.282 1.163-1.925q.552-.891 1.213-1.694a14 14 0 0 1 2.484-2.377c.311-.22.621-.442.953-.635.106-.061.216-.109.324-.166-.182.049-.369.091-.554.147a8.7 8.7 0 0 0-2.535 1.283 10.7 10.7 0 0 0-2.116 2.045c-.595.758-1.084 1.582-1.519 2.434-.417.816-.871 1.695-1.152 2.556-.308.935-.469 1.841-.703 2.766-.046.185-.108.367-.158.551.147-.248.295-.498.426-.75.277-.528.5-1.082.767-1.617Z" data-color="2"></path>
                            <path fill="#055357" d="M66.675 167.365c-.473.507-.851 1.088-1.225 1.698l-.146.238c.625.07.938-.432 1.085-.84.146-.406.25-.604.286-1.096" data-color="2"></path>
                            <path fill="#055357" d="M68.502 165.529q.04-.053.083-.104c.105-.12.201-.25.315-.362.089-.09.15-.201.217-.307.045-.071.097-.14.133-.216.022-.046.037-.093.062-.137.064-.113.141-.219.206-.331.089-.15.199-.287.288-.438l.22-.377c.104-.18.183-.37.254-.566.093-.254.164-.517.249-.774.043-.126.1-.245.153-.365.044-.097.07-.206.139-.29.055-.067.108-.127.144-.207.14-.302.251-.619.356-.936a9 9 0 0 0 .129-.467l.055-.236.024-.12c.002-.009.005-.069.014-.079a3.7 3.7 0 0 1-.453.437 2 2 0 0 0-.144.129c-.157.158-.324.335-.409.537-.039.09-.109.15-.177.222a1.4 1.4 0 0 0-.211.315c-.042.081-.064.17-.102.252q-.057.115-.129.221c-.059.085-.1.181-.158.267a6 6 0 0 0-.236.399 35 35 0 0 1-.532.938c-.061.105-.134.205-.185.316-.033.071-.055.147-.085.219-.084.204-.206.385-.281.595-.048.135-.128.254-.173.39-.047.145-.087.29-.143.432-.055.141-.132.266-.201.4-.037.071-.063.146-.091.221a2 2 0 0 1-.204.406c-.129.199-.219.425-.325.639-.069.143-.123.295-.198.435-.016.028-.03.062-.054.084.031-.062.113-.093.159-.144.075-.082.178-.143.248-.229.144-.174.25-.379.398-.551.16-.182.358-.331.537-.497a1 1 0 0 0 .107-.122Z" data-color="2"></path>
                            <path fill="#055357" d="m66.309 156.439.171-.124c.207-.145.415-.294.626-.429.166-.107.322-.233.482-.35.107-.079.22-.157.323-.24.062-.05.119-.101.184-.148l.502-.361c.227-.159.46-.304.687-.462l.574-.382c.277-.174.537-.365.807-.547l.52-.359.53-.346c.177-.11.363-.205.546-.307.147-.084.298-.168.456-.228.127-.047.242-.089.367-.15l.721-.327.73-.304.712-.272.359-.125.181-.064c.014-.005.098-.04.118-.043-.318.05-.643.078-.947.123a6 6 0 0 0-.29.046c-.171.029-.35.066-.527.119-.177.05-.355.105-.522.174-.148.065-.285.099-.436.146-.198.058-.39.142-.579.231-.137.064-.265.136-.399.203a8 8 0 0 1-.378.188c-.156.072-.306.154-.457.233-.227.118-.452.235-.67.37-.255.153-.511.302-.759.464q-.377.235-.746.484c-.167.11-.339.219-.497.34l-.3.236c-.282.221-.574.427-.845.66-.173.15-.364.286-.532.44-.178.164-.348.324-.531.485-.181.16-.366.309-.552.464q-.145.125-.283.254c-.179.167-.36.318-.552.477a4 4 0 0 0-.775.841 2.3 2.3 0 0 0-.303.669c-.012.047-.021.103-.038.149.019-.104.079-.205.125-.297.074-.153.183-.283.287-.414.211-.271.462-.527.745-.743.304-.23.635-.421.954-.628q.109-.071.21-.147Z" data-color="2"></path>
                            <path fill="#055357" d="m65.549 160.683.117-.067c.148-.067.296-.139.445-.198q.175-.074.348-.161c.077-.037.159-.071.234-.113q.066-.038.135-.072l.369-.159c.166-.071.339-.123.507-.192q.21-.084.423-.165c.201-.077.395-.168.59-.262.253-.12.499-.261.751-.385.124-.064.251-.12.378-.178.103-.047.203-.103.311-.138.087-.027.166-.05.25-.09.161-.074.316-.16.47-.249q.234-.128.452-.279c.14-.099.285-.187.413-.3l.195-.164.096-.083c.008-.007.05-.049.063-.055a6 6 0 0 1-.588.231 4 4 0 0 0-.511.175c-.11.043-.221.086-.321.141-.091.048-.18.07-.276.099a3 3 0 0 0-.373.139c-.088.039-.168.09-.257.127a4 4 0 0 1-.253.098c-.104.035-.203.083-.308.116-.157.051-.309.111-.463.171l-1.082.414c-.122.047-.248.093-.367.148-.076.036-.149.077-.224.114-.211.109-.43.199-.634.321-.13.082-.272.146-.398.231-.134.089-.256.192-.39.282a10 10 0 0 0-.396.271c-.07.05-.133.103-.198.157-.124.106-.238.214-.369.312q-.076.058-.146.12l-.132.137-.255.277c-.102.131-.192.27-.294.398-.021.026-.042.057-.068.079.043-.057.116-.096.167-.145.083-.08.18-.144.259-.226l.26-.235c.087-.077.169-.162.27-.222a4 4 0 0 1 .653-.343q.076-.036.145-.077Z" data-color="2"></path>
                            <path fill="#055357" d="M71.494 165.495q0-.034.004-.069c.008-.082.01-.165.025-.246.012-.064.001-.129-.003-.193-.003-.043-.002-.088-.01-.13-.005-.025-.014-.049-.018-.075-.009-.066-.011-.134-.018-.2-.008-.09-.006-.179-.016-.269l-.028-.223a1.6 1.6 0 0 0-.078-.309c-.042-.132-.106-.259-.153-.388-.024-.064-.04-.129-.058-.194-.015-.053-.039-.104-.037-.16.001-.045.004-.086-.007-.129a3.5 3.5 0 0 0-.276-.708l-.06-.109-.032-.054s-.022-.028-.021-.035a2 2 0 0 1-.047.323 1 1 0 0 0-.02.099.9.9 0 0 0 .005.344c.014.048.003.095-.001.145a.7.7 0 0 0 .014.192c.009.045.031.086.041.131a1 1 0 0 1 .019.128c.003.053.018.103.02.156.004.079.018.155.031.232q.044.269.077.539c.007.061.008.123.023.183.009.038.025.076.036.114.027.108.036.218.071.325.022.07.025.142.051.211.027.073.056.144.078.219.021.074.028.149.04.224q.01.06.032.118.034.113.039.228c.007.121.035.241.059.362.014.08.038.16.048.24.002.016.007.035.002.051-.006-.035.022-.072.027-.107.009-.056.038-.112.043-.169.008-.116-.008-.232.005-.348.013-.124.058-.245.086-.368a.4.4 0 0 0 .009-.083Z" data-color="2"></path>
                            <path fill="#055357" d="m94.582 161.553-.058-.167-.205-.601c-.049-.159-.124-.31-.192-.463a5 5 0 0 0-.239-.481c-.078-.155-.152-.313-.234-.466-.108-.208-.207-.418-.325-.621-.096-.169-.199-.336-.3-.503a7 7 0 0 0-.488-.67 13 13 0 0 0-.723-.791c-.123-.125-.24-.257-.364-.382-.101-.101-.208-.199-.301-.307-.073-.088-.136-.172-.225-.248a7.5 7.5 0 0 0-1.612-1.132c-.094-.048-.188-.098-.285-.139l-.146-.064c-.012-.005-.082-.031-.095-.042q.161.123.314.248.15.13.283.264.082.086.169.169c.203.193.418.411.641.589.099.083.17.172.252.266.104.126.225.24.339.36.084.085.175.158.257.245.077.081.154.163.222.252.084.107.179.205.259.315l.37.484q.426.568.788 1.182c.08.139.159.282.242.419l.166.259c.149.248.278.506.424.757.096.16.17.336.264.496.098.171.197.335.287.514.091.176.165.357.245.539q.064.144.135.283c.088.182.165.36.234.553.109.297.235.586.354.877.077.193.164.382.236.578.015.04.034.084.042.126-.034-.085-.036-.187-.059-.275-.036-.143-.054-.291-.095-.432-.084-.288-.195-.571-.279-.859-.09-.309-.153-.618-.233-.927a2 2 0 0 0-.065-.204Z" data-color="2"></path>
                            <path fill="#055357" d="m91.724 163.936-.042-.1c-.047-.12-.102-.24-.143-.362-.032-.097-.087-.184-.136-.274-.033-.06-.062-.124-.1-.181l-.069-.1q-.08-.137-.158-.276c-.07-.124-.135-.25-.209-.371l-.189-.301a3.4 3.4 0 0 0-.304-.401c-.139-.168-.298-.319-.442-.48q-.107-.12-.208-.245c-.055-.067-.119-.129-.162-.205-.034-.061-.064-.117-.109-.172a7 7 0 0 0-.556-.589q-.14-.135-.289-.261l-.151-.123-.077-.061c-.006-.005-.045-.03-.051-.039.082.145.16.293.222.44q.028.07.062.138c.079.157.171.325.286.459.053.06.08.126.116.195.046.091.105.175.167.256.045.058.099.107.144.165q.063.082.119.169c.044.072.099.135.142.208.064.108.137.208.209.311q.248.359.479.728c.052.084.098.172.156.252.036.051.079.098.117.148.102.144.191.296.298.438.069.091.122.194.195.283.075.095.151.186.222.286s.126.204.188.309q.05.082.108.159c.071.101.13.205.185.316.085.173.185.338.284.504.062.111.133.219.192.332.012.023.028.049.034.074-.027-.049-.024-.115-.041-.168-.027-.086-.035-.18-.065-.265-.065-.172-.153-.336-.215-.509-.069-.184-.104-.379-.161-.567a1 1 0 0 0-.046-.123Z" data-color="2"></path>
                            <path fill="#055357" d="M87.473 163.212c-.16 1.113-.345 2.248-.436 3.379-.07.883-.142 1.732-.125 2.627.005.412.029.824.042 1.236.031.412.049.824.092 1.235.131 1.382.38 2.733.817 4.05q.113.325.232.645c.082.212.18.419.27.628.058.132.104.268.157.402l-.126-.661a26 26 0 0 1-.387-3.189 62 62 0 0 1-.096-3.214 113 113 0 0 1 .023-3.134c.024-1.009.145-2.097.143-3.111-.001-1.101-.093-2.134-.139-3.214-.009-.216-.004-.433-.01-.65-.067.32-.135.642-.189.958-.114.665-.171 1.34-.268 2.012Z" data-color="2"></path>
                            <path fill="#055357" d="M87.2 147.828a8 8 0 0 0-.148-.571c-.058-.188-.138-.369-.215-.551-.081-.18-.157-.363-.256-.536a17 17 0 0 0-.307-.514l-.163-.265c-.311.592.022 1.105.296 1.485l.359.477c.109.147.235.291.433.474Z" data-color="2"></path>
                            <path fill="#055357" d="M87.409 150.712q.008.072.012.146c.008.175.022.352.006.529-.011.139.015.275.031.412.01.092.013.187.033.277.013.054.029.106.035.161.015.143.02.287.031.43.014.193.009.384.019.577l.021.481c.009.229.049.453.08.681.043.295.121.588.161.887.02.146.023.294.031.442.006.119.029.242.004.36-.019.095-.044.181-.043.279 0 .373.027.748.051 1.122q.02.27.051.541l.034.271.019.136c.002.011.018.075.013.089.08-.223.166-.444.268-.652q.048-.098.087-.2c.089-.237.173-.502.169-.755 0-.114.041-.211.071-.32.039-.142.054-.29.06-.436.003-.106-.018-.21-.019-.315a3 3 0 0 1 .014-.297c.014-.12.006-.241.019-.361.017-.18.012-.359.01-.54-.004-.21-.004-.419-.012-.629l-.026-.63c-.007-.142 0-.286-.025-.428-.015-.09-.042-.178-.06-.268-.052-.252-.061-.506-.135-.754-.048-.159-.062-.325-.117-.481-.06-.166-.119-.324-.174-.491-.055-.165-.09-.331-.133-.497-.023-.089-.056-.173-.089-.258-.06-.165-.118-.324-.156-.495a5 5 0 0 0-.269-.767c-.07-.165-.158-.323-.222-.489-.013-.034-.032-.071-.034-.107.031.071.006.164.017.239.018.124.002.255.027.375.055.246.123.492.154.743q.019.203.011.404l-.03.405q-.004.092.007.179Z" data-color="2"></path>
                            <path fill="#8ed6c1" d="M51.851 113.5c-1.11-2.118-4.35-3.32-6.547-3.85-6.2-1.496-11.263.414-15.209 5.429-2.388 3.034-4.653 7.398-5.988 11.053-.658 1.801-1.411 3.587-2.607 5.043 1.734.145 3.462-.315 5.187-.446 3.979-.304 7.969.048 11.942-.488 2.972-.401 5.793-1.312 8.587-2.378 1.713-.654 4.81-1.402 5.923-3.026 1.171-1.708 1.588-4.805.851-6.71-.614-1.587-1.482-2.115-2.14-4.626Z" data-color="1"></path>
                            <path fill="#8ed6c1" d="M53.825 106.819c2.585-1.452 2.869-3.341 2.87-6.271 0-2.872-2.189-5.142-4.13-7.139-2.252-2.316-4.71-4.245-7.675-5.585-2.577-1.165-5.981-1.913-8.268-3.553-.135 1.32.236 2.638.313 3.959.125 2.15-.251 4.274-.328 6.42-.076 2.122-.27 4.787.784 6.755 1.232 2.302 3.905 4.308 6.274 5.292 3.67 1.524 6.889-.198 10.161.122Z" data-color="1"></path>
                            <path fill="#8ed6c1" d="M122.265 34.339c-1.581.598-3.316.871-4.929 1.438-2.338.822-4.552 1.678-6.741 2.853-2.441 1.31-4.727 3.055-6.515 5.177a11.5 11.5 0 0 0-2.101 3.831c-.458 1.425-.261 2.656-.286 4.093-.038 2.165.084 4.398-.344 6.485-.212 1.036-.783 2.289-.827 3.302 1.77-1.732 3.78-3.464 6.028-4.529 2.11-1 4.218-1.092 6.402-1.739 2.263-.67 4.415-1.393 6.155-3.029 1.822-1.712 2.598-3.206 3.665-5.382 1.007-2.053 1.003-4.375.648-6.589-.324-2.02-.438-3.971-1.157-5.912Z" data-color="1"></path>
                            <path fill="#8ed6c1" d="M93.523 55.801a31 31 0 0 0-1.029-1.434c-1.797-2.356-4.104-5.05-7.086-5.815-6.842-1.755-13.027 2.186-19.073 4.697.243.883 2.1 2.137 2.779 2.73 1.111.972 2.211 1.874 3.159 3.027 1.417 1.724 2.778 3.536 4.955 4.274 2.148.728 4.475.399 6.598-.251 2.831-.867 5.53-2.342 8.473-2.808 1.565-.248 2.742.132 4.248.298-1.032-1.554-1.964-3.159-3.023-4.718Z" data-color="1"></path>
                            <path fill="#8ed6c1" d="M86.583 20.207c-.973 2.601-1.503 5.81-1.91 8.519-.444 2.953-1.553 5.919-.521 8.858.994 2.829 2.348 4.851 4.511 6.939 1.256 1.213 2.664 2.267 3.904 3.509 1.122 1.124 2.375 1.932 2.93 3.45.533 1.456 1.547 3.046 1.5 4.661.104-2.943.184-5.36 1.323-8.099.663-1.595 1.03-2.785 2.171-4.116 1.172-1.368 2.359-2.779 2.507-4.657.179-2.278-.557-5.211-1.737-7.156-1.741-2.869-4.733-3.911-7.166-6.056-1.234-1.088-2.574-2.104-3.886-3.124-1.153-.895-2.317-2.205-3.548-2.934l-.079.207Z" data-color="1"></path>
                            <path fill="#055357" d="M36.951 122.72c.229-.136.455-.271.688-.402q.307-.173.615-.338l.312-.165c.116-.065.237-.125.347-.195.454-.27.871-.574 1.265-.873.62-.473 1.157-1.007 1.709-1.452.185-.151.375-.287.565-.42l.601-.398c.24-.158.471-.314.727-.458.657-.37 1.354-.698 2.055-1.029.949-.449 1.893-.831 2.855-1.225q1.196-.489 2.418-.912c1.162-.401 2.3-.802 3.468-1.166 1.514-.474 3.029-.913 4.587-1.255l.576-.121.581-.102c.388-.067.777-.132 1.168-.184.316-.044.634-.101.954-.139s.64-.07.958-.084c.51-.016.974-.016 1.495-.059a66 66 0 0 1 5.974-.152c.48.002.959.033 1.439.046.479.019.957.054 1.436.077l1.433.11.719.07c.057.006.396.026.472.044-1.184-.291-2.37-.572-3.497-.818-.353-.086-.715-.145-1.082-.21-1.283-.213-2.726-.382-4.085-.351-.611.007-1.14-.031-1.733-.056a27 27 0 0 0-1.171.003q-.59.027-1.181.071c-.568.049-1.118.134-1.679.203l-1.586.193c-.321.04-.642.081-.961.136a39 39 0 0 1-.957.156c-.479.074-.951.168-1.425.259q-.706.154-1.416.319a53 53 0 0 0-6.446 1.998c-.711.27-1.432.547-2.122.868-.441.204-.866.431-1.298.649-1.199.612-2.449 1.19-3.593 1.994-.362.255-.745.532-1.091.827-.348.293-.671.598-.972.904-.636.649-1.222 1.269-1.952 1.746-.177.118-.388.241-.576.363l-.576.369-1.143.735c-.407.256-.796.506-1.207.734-.398.222-.801.4-1.228.559l-1.29.495a27 27 0 0 0-3.888 1.88c-.407.242-.801.502-1.169.789a7 7 0 0 0-.525.452 2.7 2.7 0 0 0-.428.505 1.1 1.1 0 0 0-.171.445c-.004-.146.09-.311.214-.451.121-.144.279-.269.425-.393.241-.202.518-.372.801-.529s.573-.305.864-.456c1.185-.62 2.432-1.199 3.709-1.652q.513-.18 1.028-.336l.515-.15.527-.148c.728-.213 1.424-.51 2.086-.842.303-.151.584-.315.862-.479Z" data-color="2"></path>
                            <path fill="#055357" d="m93.347 41.406.311.99.285.884.147.441c.043.135.083.263.118.398.141.539.22 1.115.284 1.711.051.47.115.961.215 1.467l.312 1.431c.137.632.264 1.285.415 1.911.09.376.187.735.272 1.116l.642 2.946c.294 1.321.557 2.636.879 3.956.134.548.266 1.096.407 1.642q.205.821.425 1.639c.203.78.436 1.545.668 2.308.246.759.491 1.517.763 2.271.693 1.962 1.492 3.864 2.357 5.753l.317.699.327.697c.213.467.441.927.669 1.387.181.374.382.742.578 1.113q.292.558.567 1.115c.145.298.28.586.424.87.148.282.302.565.473.86q.242.423.502.835c.171.276.339.554.514.827.357.542.704 1.091 1.08 1.619.73 1.072 1.517 2.1 2.317 3.11.398.479.783.966 1.196 1.429l.611.7.629.682c.414.459.856.891 1.284 1.333.219.219.444.432.666.647.053.051.374.344.438.421a44 44 0 0 1-2.776-3.633l-.781-1.151c-.927-1.354-1.899-2.885-2.846-4.298-.219-.314-.394-.626-.569-.935a31 31 0 0 1-.512-.946l-1.402-2.581c-.166-.314-.343-.618-.511-.925-.166-.309-.332-.616-.494-.93-.156-.294-.291-.598-.434-.898-.14-.302-.283-.602-.408-.909-.156-.373-.323-.74-.482-1.111q-.234-.557-.458-1.119l-.637-1.691c-.2-.568-.419-1.129-.61-1.706a86 86 0 0 1-1.279-4.024c-.387-1.356-.76-2.717-1.1-4.089l-.681-2.799-.467-1.765c-.423-1.667-.778-3.347-1.209-5.01-.139-.535-.265-1.078-.394-1.62l-.196-.811-.199-.787c-.27-1.086-.412-2.244-.856-3.404a49 49 0 0 1-1.177-3.265c-.19-.588-.378-1.156-.553-1.738a23 23 0 0 1-.441-1.689c-.124-.566-.229-1.144-.349-1.733-.366-1.823-.889-3.607-1.619-5.286-.477-1.116-1.092-2.151-1.789-3.127-.142-.196-.32-.408-.454-.611.159.207.316.429.452.665.132.238.27.47.391.699.417.735.719 1.522 1.026 2.302a27 27 0 0 1 1.421 4.995q.124.686.217 1.371c.062.455.126.927.2 1.386q.219 1.385.546 2.75c.1.416.217.815.339 1.214Z" data-color="2"></path>
                            <path fill="#fdbae3" d="M142.262 64.355c-3.46-.286-6.895.333-10.684 1.328-2.053.539-4.329 2.942-6.262 3.111-1.888.165-4.998-3.649-6.765-4.731-1.381-.846-4.035-3.367-5.508-3.739-1.213-.306-1.957 1.012-3.245 1.809-2.471 1.529-5.408 2.296-8.167 3.128-5.615 1.695-12.43 3.977-17.079 7.639-4.184 3.296-7.313 7.839-8.064 13.197-.546 3.895.816 7.391 2.547 10.846.935 1.867 1.269 3.202 1.195 5.301-.077 2.182-.228 3.999-1.529 5.772.423-.575-2.496-4.605-3.01-5.086-1.751-1.639-4.6-2.079-6.924-1.881-1.772.151-5.679.879-6.582 2.682-.502 1.002.679 2.627.92 4.077.483 2.9-.759 4.829-1.753 7.449-1.139 3.002-2.098 6.548-1.641 9.808.531 3.784 2.643 6.896 2.644 10.898.001 2.97-1.692 4.567-3.765 6.483 4.621.194 7.382.856 10.734 4.502 3.505 3.813 4.326 8.773 7.323 12.876 5.333 7.301 20.791 3.199 21.968-5.804.269-2.058-.363-4.896-1.309-6.659 3.226 2.944 4.857 3.738 4.006 7.982-.794 3.956.495 5.603 4.002 7.742 4.391 2.678 8.007 2.449 12.871 2.726 5.208.296 9.14-.255 14.123-2.067 2.687-.977 7.868-5.298 8.97-7.991 3.819 4.246 8.819 3.973 13.36 1.088 3.166-2.011 8.072-7.239 8.414-11.114.271-3.072-.155-5.895-2.243-8.277 1.444.784 4.937.786 6.518.378 8.27-2.134 4.007-13.284 3.728-18.522-.176-3.306-1.005-7.405 2.046-9.387 1.917-1.245 4.24-1.151 5.4-3.321-5.11.003-10.341-4.387-11.003-9.662-.948-7.56-.371-16.088-5.942-22.16-3.66-3.989-7.777-6.487-12.624-8.669-2.296-1.034-4.487-1.574-6.669-1.755Z" data-color="3"></path>
                            <path fill="#f20500" d="M96.703 82.641c.852-1.627 2.168-2.974 3.687-3.988.761-.508 1.571-.94 2.408-1.304.839-.36 1.705-.647 2.587-.88 2.76-.719 5.534-.827 8.44-.913a21.5 21.5 0 0 1 7.724 1.26c.258.096.519.186.775.286l.756.328.377.164.366.186.732.371.706.415.353.207c.116.071.226.152.34.227l.676.458c.221.158.43.333.646.498.441.321.829.704 1.238 1.062.105.088.196.188.291.286l.283.294.284.294q.072.072.141.148l.13.157.523.629.131.157.119.167.237.334c.155.225.325.442.47.675q.222.347.432.708c.744 1.273 1.398 2.633 2.258 3.906.273.404.55.804.863 1.181a14 14 0 0 1-1.13-1.941c-.391-.797-.734-1.611-1.094-2.421a30 30 0 0 0-.564-1.207q-.149-.3-.309-.594c-.108-.196-.229-.384-.344-.577a17.1 17.1 0 0 0-3.51-4.137c-2.783-2.398-6.296-3.978-9.962-4.618-.447-.081-.9-.127-1.35-.191-.451-.051-.905-.07-1.358-.104-.453-.019-.908-.012-1.362-.017-.446.006-.886.024-1.33.04-1.773.075-3.563.227-5.353.567-1.709.327-3.489.832-5.148 1.653-1.656.809-3.186 1.941-4.334 3.329a10.5 10.5 0 0 0-1.523 2.434c-.389.854-.664 1.725-.898 2.589-.469 1.728-.759 3.45-1.311 5.146a12 12 0 0 1-.846 1.972c.606-.896 1.063-1.903 1.439-2.909.788-2.114 1.266-4.356 2.311-6.328Z" data-color="4"></path>
                            <path fill="#f20500" d="M98.672 127.453c2.02 1.667 4.408 2.884 6.939 3.652.332.107.66.192.991.286-.524-.559-1.265-.993-2.051-1.376-.785-.381-1.62-.705-2.32-.985-.697-.278-1.222-.522-1.754-.769-.536-.242-1.072-.493-1.806-.808Z" data-color="4"></path>
                            <path fill="#f20500" d="M93.12 119.824q-.094-.219-.185-.444c-.193-.54-.385-1.09-.497-1.645-.046-.218-.106-.434-.154-.653-.053-.218-.113-.435-.152-.656l-.083-.447a8 8 0 0 0-.072-.448c-.037-.176-.073-.345-.093-.526a16 16 0 0 1-.086-1.411c-.018-.638.024-1.275.041-1.925.014-.54.038-1.083.059-1.631.031-.781.014-1.56-.04-2.35a17.3 17.3 0 0 0-.493-3.051c-.118-.494-.256-.99-.42-1.475-.072-.195-.144-.392-.23-.584q-.061-.145-.118-.291a5 5 0 0 1-.117-.291 5 5 0 0 0-.184-.452c-.034-.073-.066-.147-.105-.22a7.3 7.3 0 0 0-1.393-1.727c-.476-.426-.95-.791-1.174-1.278-.22-.462-.159-1.045.087-1.556.121-.257.279-.503.468-.725a4 4 0 0 1 .306-.32c.024-.025.176-.173.219-.195-.671.347-1.286.876-1.645 1.607a2.06 2.06 0 0 0-.1 1.547c.083.252.21.488.353.691.289.41.624.719.903.986.123.122.221.249.316.375.087.134.168.27.254.41.214.376.43.759.626 1.155q.1.218.21.429c.064.146.132.291.19.441q.075.217.143.435.06.222.111.446c.072.367.166.729.209 1.105.067.56.129 1.118.159 1.69.071 1.324.003 2.689-.05 4.077-.018.47-.046.949-.036 1.425.008.305.034.607.054.912.052.858.098 1.731.293 2.582l.087.412.097.411c.059.275.142.544.233.805.091.278.214.541.318.808l.352.793c.248.524.48 1.045.763 1.55q.112.201.23.393l.253.374c.328.481.654.934.99 1.415.53.738 1.156 1.39 1.802 2.005.209.209.439.394.658.588l.677.564c.092.075.201.157.284.244-.203-.158-.364-.393-.536-.579-.289-.297-.525-.641-.799-.945-.559-.623-1.127-1.254-1.586-1.955-.491-.75-.849-1.551-1.17-2.359-.071-.186-.158-.357-.23-.537Z" data-color="4"></path>
                            <path fill="#f20500" d="M153.865 83.639c-1.856-2.362-3.841-4.686-5.803-6.95a107 107 0 0 1-2.221-2.643c-.364-.439-.715-.889-1.075-1.334-.346-.44-.678-.887-.965-1.352-.277-.458-.515-.931-.642-1.407-.031-.119-.062-.237-.077-.355-.01-.059-.023-.118-.024-.176l-.012-.152c-.004-.065 0-.137 0-.205a.4.4 0 0 1 .013-.111l.023-.118.045-.236c.03-.157.058-.311.102-.486l.229-.97c-.726.277-1.745.775-2.452 1.048-.229.089-.453.187-.685.267l-.693.247c-.842.274-1.686.533-2.545.723l-.321.077-.323.065-.645.13c-.433.069-.864.154-1.3.204a28 28 0 0 1-5.271.224 33 33 0 0 1-1.752-.141 5 5 0 0 1-.827-.125 2.6 2.6 0 0 1-.723-.279c-.271-.164-.429-.385-.457-.644a.82.82 0 0 0 .234.587c.16.183.395.327.642.447q.443.202.945.305c.334.07.669.154 1.008.212a25.3 25.3 0 0 0 6.277.374 25 25 0 0 0 4.241-.647c.351-.082.697-.184 1.046-.277.346-.102.69-.215 1.035-.323l.511-.184.128-.046.032-.011.01-.003.009-.002.041-.009.071-.016.03-.006s.01-.003.012-.001l-.008.022a.4.4 0 0 0-.018.058q-.01.037-.013.067v.023q.002.078.01.158l.047.312a5.7 5.7 0 0 0 .358 1.163c.316.726.731 1.364 1.172 1.955.221.297.452.579.677.851.227.274.451.552.684.821q.692.814 1.403 1.615c1.817 2.044 3.78 4.229 5.637 6.176 2.016 2.116 3.926 4.044 5.643 6.329q.255.344.501.7l.478.718a28 28 0 0 0-1.257-2.274c-.95-1.534-2.068-2.965-3.186-4.393Z" data-color="4"></path>
                            <path fill="#f20500" d="M154.814 121.425c-1.071 1.801-1.998 3.688-2.9 5.631l-.355.757c1.164-.587 1.902-2.16 2.32-3.335.417-1.169.679-1.775.935-3.052Z" data-color="4"></path>
                            <path fill="#f20500" d="M158.919 114.853q.093-.174.194-.35c.24-.412.473-.84.722-1.247.198-.32.348-.673.508-1.02.106-.232.227-.466.315-.705.054-.144.098-.284.156-.427q.112-.275.228-.551l.222-.555.294-.748c.092-.252.191-.501.27-.76q.202-.643.372-1.298c.162-.624.244-1.257.302-1.895.022-.416.029-.831.037-1.242l-.053-1.234c-.038-.403-.049-.809-.075-1.212-.037-.325-.097-.654-.091-.982.008-.263-.01-.5-.048-.766-.15-1.013-.432-2-.754-2.957l-.261-.683-.133-.339-.15-.331-.307-.656c-.05-.11-.11-.217-.167-.323-.014-.025-.105-.171-.114-.209l.106.447q.044.225.08.449c.047.298.097.589.12.877q.02.271.054.544.03.238.067.484c.02.165.037.332.061.498.044.333.117.662.179.981.063.286.059.545.077.828.002.371.041.745.091 1.115.02.268.07.527.096.795.011.126.025.252.027.378q0 .19-.008.377c-.006.153-.004.305-.002.458l.002.229q-.006.114-.018.228c-.049.454-.051.905-.116 1.357-.095 1.051-.327 2.087-.62 3.112-.105.345-.224.69-.327 1.038-.061.223-.116.447-.181.67-.19.627-.441 1.23-.65 1.857-.132.403-.32.794-.454 1.196-.141.428-.275.845-.441 1.27-.164.421-.355.825-.541 1.239-.098.22-.181.441-.265.664-.163.432-.342.838-.549 1.255-.321.645-.585 1.315-.865 1.974-.185.437-.348.881-.543 1.315-.04.088-.08.19-.133.271.081-.191.244-.357.35-.534.172-.287.386-.55.549-.842.333-.595.613-1.225.956-1.814.367-.631.79-1.208 1.188-1.809.091-.138.169-.277.246-.418Z" data-color="4"></path>
                            <path fill="#f20500" d="M123.659 147.408c.853.229 1.7.493 2.506.854l.304.13.038.016.057.025.105.052.21.105.851.425.054.027.027.013.004-.028.016-.116.031-.232.063-.468c.023-.156.044-.324.076-.477l.07-.362c.384-1.718 1.203-3.322 2.23-4.762 1.031-1.445 2.275-2.725 3.614-3.909 1.337-1.188 2.758-2.292 4.16-3.435a73 73 0 0 0 1.624-1.357q.401-.345.792-.701l.39-.357.376-.373c.496-.501 1.015-.979 1.47-1.517l.702-.788c.12-.129.23-.266.338-.405l.327-.414a33.6 33.6 0 0 0 4.412-7.266c2.156-4.858 3.231-10.212 3.015-15.539l-.004-.21-.016-.209-.032-.419-.065-.835a19 19 0 0 0-.193-1.669c-.175-1.113-.448-2.237-.929-3.303a8.5 8.5 0 0 0-.883-1.517 11 11 0 0 0-1.13-1.3c-.807-.797-1.665-1.476-2.554-2.137-3.558-2.612-7.79-4.327-12.216-4.748-1.461-.144-2.935-.118-4.363-.024-1.433.087-2.85.211-4.267.253a24 24 0 0 1-2.68-.075c1.369.178 2.757.209 4.158.195l2.52-.045c.843-.01 1.689-.026 2.536.021.424.008.846.058 1.268.092.422.037.841.109 1.262.161.417.08.836.144 1.25.238.413.099.829.181 1.236.304a24.2 24.2 0 0 1 4.739 1.849 26.5 26.5 0 0 1 4.276 2.774c1.314 1.076 2.63 2.216 3.437 3.635.404.708.687 1.489.886 2.298.198.811.315 1.65.395 2.5.035.426.053.855.082 1.282l.039.641c.013.213.004.428.007.642l.003 1.284c-.016.428-.046.855-.068 1.282l-.035.641-.07.638-.142 1.275-.213 1.266c-.036.211-.068.422-.108.632l-.141.626-.276 1.22-.34 1.202-.171.6-.202.59-.403 1.179-.465 1.155-.232.577-.263.563-.526 1.127-.586 1.096-.293.548c-.104.179-.214.354-.321.532l-.646 1.062c-.229.345-.469.683-.702 1.025l-.352.512c-.12.169-.252.329-.378.494l-.763.983c-.265.319-.544.626-.816.94l-.41.469c-.137.156-.289.298-.433.448l-.876.889c-2.294 2.221-5.089 4.166-7.605 6.557-1.258 1.196-2.425 2.525-3.373 3.999-.948 1.47-1.677 3.102-2.006 4.808l-.029.174-.014.087v.013l-.003.046c-.001.029.003.072-.004.098l-.086-.027-.05-.017-.286-.11-.629-.241-.638-.202-.318-.1-.322-.083-.641-.163c-1.719-.379-3.44-.54-5.14-.581-3.405-.075-6.728.259-10.145.3a83 83 0 0 1-4.123-.051c2.064.182 4.146.275 6.191.299 2.15.027 4.303-.036 6.453.025 1.075.027 2.148.092 3.215.213 1.065.123 2.127.29 3.159.564Z" data-color="4"></path>
                            <path fill="#f20500" d="m109.69 139.539 1.836.401.921.193.929.15 1.862.29 1.878.194.941.092.945.049 1.894.087c.633.005 1.267-.002 1.901-.005l.952-.007c.317-.01.635-.033.953-.049l1.982-.11a14 14 0 0 0-2.187-.347 23 23 0 0 0-.601-.044l-.616-.055q-.624-.051-1.262-.078l-.639-.022c-.213-.005-.427-.008-.639-.024a58 58 0 0 0-2.481-.087l-1.14-.055c-.724-.036-1.367-.056-1.967-.1l-1.717-.15-.85-.063c-.287-.022-.578-.061-.883-.089a75 75 0 0 0-2.013-.173Z" data-color="4"></path>
                            <path fill="#f20500" d="m92.768 132.457-.817-.474c-.241-.145-.488-.283-.727-.435l-.712-.465a93 93 0 0 1-1.406-.936 99 99 0 0 0-2.19-1.518c-.249-.164-.488-.349-.726-.533q-.36-.276-.721-.537c-.289-.208-.572-.4-.859-.614-.737-.552-1.451-1.164-2.209-1.737-1.018-.77-2.068-1.543-3.3-2.087a9 9 0 0 0-1.594-.549c-.136-.039-.277-.063-.417-.09-.142-.025-.272-.056-.433-.074-.313-.033-.658-.053-1.063.068a1.56 1.56 0 0 0-.806.563 1.76 1.76 0 0 0-.315.85 3.6 3.6 0 0 0-.004.68l.053.575c.088.764.213 1.522.404 2.267.483 1.939 1.309 3.739 2.329 5.411a26 26 0 0 0 1.636 2.39c.478.619 1.014 1.208 1.518 1.799.4.478.784.897 1.249 1.336a25.4 25.4 0 0 0 5.989 4.105q.783.389 1.59.709l.803.326.816.286c.541.2 1.095.355 1.644.518.275.086.555.156.835.223.066.017.462.103.55.135a27 27 0 0 1-3.882-1.716c-.369-.21-.747-.414-1.128-.622-1.317-.75-2.708-1.675-3.98-2.587-.577-.406-1.021-.829-1.517-1.295a46 46 0 0 1-1.915-1.894c-.442-.478-.89-.929-1.294-1.434a16 16 0 0 1-1.072-1.474c-.4-.62-.786-1.247-1.12-1.901a22 22 0 0 1-1.261-3.027 17 17 0 0 1-.481-1.841c-.071-.309-.112-.624-.165-.936-.023-.157-.038-.314-.058-.471-.019-.157-.039-.314-.048-.472-.021-.309-.06-.666-.039-.862a.6.6 0 0 1 .04-.185c.012-.017.002-.009.023-.022.035-.029.254-.066.506-.028.06.006.133.02.207.035l.218.042c.146.022.289.07.433.104.781.205 1.534.583 2.27.99.469.266.935.544 1.392.855.643.441 1.267.927 1.899 1.416.627.497 1.293.963 1.953 1.425l.637.451c.211.154.423.307.644.447.437.287.873.573 1.311.841.917.588 1.862 1.059 2.812 1.609.238.131.467.276.708.4l.718.38 1.437.768c.253.141.517.254.775.372l.779.347c.505.22.992.456 1.49.672.501.209 1.002.423 1.513.648.397.169.788.354 1.193.501l1.212.441 1.21.431 1.225.377a129 129 0 0 0 1.619.484 88 88 0 0 1 1.639.421c.221.059.474.121.692.196-.478-.123-.971-.339-1.435-.489q-.284-.092-.566-.19a9 9 0 0 1-.559-.208 30 30 0 0 0-1.111-.43l-1.15-.402c-.384-.132-.76-.292-1.14-.436l-1.136-.447-.565-.228-.551-.257a70 70 0 0 1-1.163-.564l-.573-.286-.285-.144-.278-.157-2.214-1.26a32 32 0 0 0-.985-.585Z" data-color="4"></path>
                            <path fill="#f20500" d="M137.277 112.093c.023.866-.037 1.738-.129 2.6a32 32 0 0 1-.426 2.556c-.279 1.313-.688 2.525-1.129 3.795a29 29 0 0 1-1.459 3.422c-.941 1.867-2.005 3.627-3.147 5.396-.38.584-.749 1.17-1.135 1.75-.123.184-.259.356-.388.536.244-.241.492-.478.734-.723 1.157-1.169 2.281-2.423 3.303-3.786a27 27 0 0 0 1.449-2.124c.231-.365.439-.743.652-1.12.2-.384.408-.765.587-1.161a22 22 0 0 0 1.621-4.825c.333-1.604.61-3.386.467-5.031-.136-1.785-.647-3.389-1.295-4.951-.143-.309-.26-.63-.409-.934.116.499.224.998.308 1.489.191 1.027.365 2.061.394 3.109Z" data-color="4"></path>
                            <path fill="#f20500" d="M121.166 97.77c-.61 0-1.223.064-1.819.219-.3.066-.591.172-.883.27-.144.054-.287.116-.429.176a5 5 0 0 0-.421.194l-.43.215c.422.239.827.251 1.219.183a3.6 3.6 0 0 0 .832-.285q.13-.056.249-.117c.315-.165.568-.261.822-.384.127-.064.255-.125.395-.199s.291-.167.465-.273Z" data-color="4"></path>
                            <path fill="#f20500" d="M125.494 98.729q.107.028.214.063c.249.099.508.179.745.304.186.1.392.144.589.215.132.048.263.108.398.144.082.02.163.032.242.063q.304.12.6.256c.266.123.516.271.774.409l.323.167.315.182q.227.125.455.245c.152.08.312.149.465.23.402.204.819.392 1.21.631q.284.183.546.398c.141.115.303.215.414.364.085.123.158.236.267.338.213.19.406.398.618.592.198.205.407.403.603.612.189.202.387.399.572.608l.288.308.141.159c.011.012.087.082.094.104-.099-.354-.215-.702-.298-1.058a3 3 0 0 0-.106-.325c-.138-.377-.341-.774-.616-1.073-.128-.131-.194-.284-.286-.442-.121-.204-.286-.378-.45-.55-.119-.125-.267-.21-.393-.323-.121-.105-.233-.219-.348-.33-.138-.138-.294-.254-.434-.389a7 7 0 0 0-.683-.539 18 18 0 0 0-1.714-1.072c-.202-.105-.401-.223-.611-.312-.137-.051-.279-.086-.416-.132q-.287-.106-.574-.205c-.192-.066-.382-.133-.584-.168-.257-.049-.502-.15-.763-.173l-.407-.039c-.135-.011-.271-.018-.407-.034-.269-.035-.53-.081-.798-.116a2.5 2.5 0 0 0-.426-.018 8 8 0 0 1-.807-.044 4 4 0 0 0-.633-.019c-.211.011-.421.017-.629.042-.277.026-.549.075-.822.11-.055.006-.118.019-.173.009.119-.018.247.048.364.06.192.016.378.1.567.114l.582.041q.145.01.291.024.144.02.287.052c.408.086.784.27 1.16.431.086.038.171.064.258.088Z" data-color="4"></path>
                            <path fill="#f20500" d="M97.732 109.907c-.528-1.881-1.038-3.79-1.634-5.685-.602-1.892-1.287-3.776-2.179-5.565l-.261-.522-.276-.512a12 12 0 0 0-.282-.507l-.036-.063-.011-.02-.004-.008-.016-.032-.03-.06c-.001-.009-.017-.02-.007-.027l.025-.024.048-.045.023-.021.094-.099.188-.198c.123-.135.257-.259.389-.384l.396-.376a26.5 26.5 0 0 1 3.474-2.699 23.3 23.3 0 0 1 3.623-1.945 24.4 24.4 0 0 1 3.904-1.284c1.119-.279 2.256-.437 3.392-.544 1.135-.106 2.281-.101 3.434-.064 2.307.074 4.639.331 7.033.343 1.581.014 3.167-.106 4.72-.456.496-.097.979-.238 1.465-.37-.385.072-.763.162-1.146.215-.385.045-.765.113-1.152.13-1.841.155-3.682.01-5.517-.195-1.837-.212-3.678-.495-5.559-.646a24 24 0 0 0-5.717.15c-.479.056-.948.168-1.423.256-.238.042-.47.108-.705.165l-.703.178c-.461.142-.927.277-1.384.436l-.681.251-.341.127-.334.143a24.2 24.2 0 0 0-4.921 2.782c-.195.134-.38.281-.564.429l-.555.441c-.363.303-.713.623-1.068.937-.336.335-.684.659-1.009 1.006l-.622.681-.454.496c-.034.019-.003.045.009.068l.044.072.087.144.175.287.297.489c.055.093.115.184.166.28l.32.573c.11.19.204.391.308.587q.155.294.298.597a37 37 0 0 1 1.083 2.478c.672 1.685 1.252 3.417 1.831 5.08 1.256 3.613 2.46 7.019 4.157 10.368.174.332.338.671.521 1.002l.268.498.284.487a40 40 0 0 1-1.298-3.121 85 85 0 0 1-2.166-6.707Z" data-color="4"></path>
                            <path fill="#f20500" d="M134.769 117.356c.023-.169.036-.34.053-.511.012-.171.041-.341.036-.513.002-.172.004-.344-.009-.515a6 6 0 0 0-.04-.514 12.6 12.6 0 0 0-.392-2.024 13 13 0 0 0-.703-1.941 9.2 9.2 0 0 0-1.04-1.77c-.103-.148-.227-.272-.339-.405-.114-.131-.248-.239-.37-.359.108.373.247.719.387 1.108.149.375.304.778.475 1.18.332.811.69 1.657.973 2.381.28.721.44 1.297.591 1.88q.06.219.108.443l.054.229.047.237c.038.162.059.331.084.513l.086.581Z" data-color="4"></path>
                            <path fill="#f20500" d="M129.373 125.422c-.126.109-.247.224-.385.327-.473.373-.958.747-1.465 1.062-.409.261-.751.517-1.145.729l-.407.197q-.212.088-.417.184c-.168.068-.323.152-.499.209-.446.159-.919.264-1.39.363-.638.13-1.287.185-1.944.247q-.82.077-1.654.103-.595.015-1.183.052l-1.178.052c-.51.004-1.021.04-1.528.031-.254-.002-.51.005-.765-.004l-.765-.039c-.253-.009-.501-.052-.752-.083-.25-.037-.502-.063-.749-.117-.4-.08-.82-.124-1.2-.277-.306-.117-.586-.212-.899-.325a17.3 17.3 0 0 1-3.489-1.527c-.263-.159-.52-.328-.783-.49q-.099-.06-.196-.123l-.187-.136-.376-.271c-.125-.092-.254-.177-.376-.273l-.359-.294-.364-.295c-.03-.021-.207-.155-.234-.2.239.317.5.616.743.928.253.302.521.583.769.877.157.183.34.341.52.512a8.8 8.8 0 0 0 2.244 1.537c.373.158.676.342 1.026.532q.35.162.718.304c.123.046.244.098.37.136l.377.111q.273.076.545.139c.181.043.366.067.548.108.345.073.687.157 1.031.221q.314.064.629.115l.631.088c.314.05.628.094.942.115.314.024.63.056.946.066 1.471.072 2.919.05 4.385-.035a16 16 0 0 0 1.498-.145q.237-.042.472-.091l.47-.107c.882-.205 1.776-.425 2.606-.84.532-.26 1.08-.539 1.541-.923.243-.197.449-.398.673-.595l.653-.61q.323-.31.65-.612l.637-.628c.218-.232.417-.47.617-.71.185-.24.372-.47.561-.7.18-.238.367-.47.558-.708.578-.75 1.039-1.577 1.429-2.421l.181-.424q.045-.105.087-.212l.073-.218c.095-.291.204-.575.279-.872.034-.119.067-.256.116-.369-.073.256-.216.51-.327.747-.093.193-.196.381-.297.568-.104.186-.225.362-.323.55-.42.755-.858 1.523-1.425 2.185-.603.712-1.287 1.312-1.997 1.882-.159.134-.316.261-.467.397" data-color="4"></path>
                            <path fill="#f20500" d="M117.561 100.785c1.108.197 2.193.547 3.243.896.824.27 1.571.627 2.373.945l.546.241.273.121.267.134.533.268.52.293a28 28 0 0 1 3.308 2.233c.345.282.707.542 1.044.837.109.092.205.195.31.291l-.354-.571c-1.166-1.803-2.819-3.476-4.814-4.591-.97-.548-2-.957-3.069-1.282-1.019-.317-2.147-.625-3.218-.662-1.158-.033-2.252.151-3.327.451-.214.068-.433.102-.641.182.167-.006.334.004.5.011l.246.008.244.016c.675.036 1.348.048 2.017.179Z" data-color="4"></path>
                            <path fill="#f20500" d="M106.337 109.324c-.16.789.049 1.642.505 2.297l.174.254c.124-.173.2-.324.238-.459s.034-.253.026-.371a.8.8 0 0 0-.114-.324 1.6 1.6 0 0 0-.17-.3l-.091-.135c-.026-.044-.045-.087-.068-.129a5 5 0 0 0-.132-.246c-.104-.165-.187-.337-.369-.588Z" data-color="4"></path>
                            <path fill="#f20500" d="M107.702 106.794c.023-.041.046-.082.078-.12.108-.135.205-.278.329-.398.103-.092.162-.213.234-.326.046-.076.108-.145.15-.225.024-.048.04-.1.07-.146.075-.117.163-.226.251-.333.117-.147.254-.274.379-.412.103-.116.201-.237.313-.344q.116-.118.212-.253c.067-.09.138-.183.205-.277.175-.248.329-.513.512-.758.092-.116.2-.217.304-.322.083-.087.16-.184.273-.231.091-.037.175-.067.249-.13.144-.113.283-.236.424-.356.144-.114.28-.243.425-.359.141-.11.274-.238.418-.349l.212-.178q.052-.048.108-.091c.009-.007.056-.058.072-.058-.125-.001-.248.004-.374.006a6 6 0 0 1-.384-.01 2 2 0 0 0-.238.009c-.278.024-.57.098-.79.255-.096.073-.21.09-.328.126-.154.047-.29.129-.412.224-.09.067-.158.158-.243.23q-.117.103-.249.188c-.107.069-.198.158-.301.23a4 4 0 0 0-.431.359l-.469.45c-.155.163-.32.318-.466.487-.101.113-.212.22-.298.346-.052.083-.089.176-.137.261-.138.235-.299.452-.4.709-.068.162-.161.311-.21.481-.053.18-.083.364-.133.541-.052.175-.126.334-.179.507-.03.091-.044.186-.06.281a3 3 0 0 1-.124.524c-.05.13-.07.271-.086.411-.013.141-.031.278-.033.418-.002.186.015.371.01.549 0 .036.007.079-.007.112-.006-.08.068-.149.099-.22.046-.117.138-.219.174-.334l.105-.359c.037-.119.064-.242.129-.351.132-.236.327-.431.517-.623a.7.7 0 0 0 .1-.143Z" data-color="4"></path>
                            <path fill="#f20500" d="M124.279 106.598c.129.07.247.16.37.241.121.085.249.163.364.26.835.649 1.607 1.426 2.152 2.311a10.3 10.3 0 0 1 1.069 2.238c.098.264.162.543.242.817l.096.417.049.207.039.208c.03.166.069.327.094.491l.068.497c.089.869.074 1.753-.063 2.602a7.8 7.8 0 0 1-.463 1.646c-.058.128-.122.252-.182.379-.056.129-.131.246-.204.364a4.7 4.7 0 0 1-.479.682c-.589.717-1.364 1.282-2.224 1.693-1.232.584-2.581.909-3.968 1.062-.902.093-1.812.123-2.72.077a15 15 0 0 1-2.708-.361 12 12 0 0 1-2.551-.9c-.659-.316-1.315-.688-1.876-1.153-.447-.375-.819-.75-1.223-1.185-.756-.84-1.362-1.822-1.698-2.904a8.2 8.2 0 0 1-.32-3.371 8.2 8.2 0 0 1 .346-1.612c.172-.53.37-1.056.581-1.573.212-.518.444-1.026.705-1.517.135-.245.274-.488.431-.718.016-.029.084-.121.152-.217a3 3 0 0 1 .18-.218c-.504.494-.889 1.106-1.248 1.707-.356.607-.67 1.225-.962 1.832a9 9 0 0 0-.493 1.209 8.2 8.2 0 0 0-.387 2.41c-.007.421.025.845.09 1.263.06.418.165.828.296 1.222.24.707.494 1.308.862 1.932a8.4 8.4 0 0 0 1.869 2.16c.529.447 1.099.804 1.691 1.136.559.311 1.132.594 1.721.83.716.294 1.462.5 2.21.677 1.123.256 2.254.378 3.404.4 1.331.02 2.671-.097 3.985-.415a11 11 0 0 0 1.928-.661 8 8 0 0 0 1.773-1.075 6.4 6.4 0 0 0 1.806-2.211l.186-.415c.062-.138.1-.283.151-.424.105-.282.164-.573.237-.861.35-1.637.301-3.305-.056-4.887-.239-1.014-.567-2.035-1.063-2.95-.531-.973-1.228-1.787-2.032-2.528a10.7 10.7 0 0 0-2.674-1.801c-.518-.251-1.053-.419-1.597-.561l-.398-.084-.198-.042-.2-.027-.398-.056c-.133-.014-.267-.018-.4-.028-.535-.04-1.071.006-1.612.021-1.679.052-3.372.079-4.995.453-.539.113-1.054.305-1.552.52-.24.127-.489.236-.712.391-.112.076-.234.136-.337.224l-.319.25c-.169.137-.334.326-.501.467q.125-.125.262-.245c.091-.08.179-.164.284-.228.203-.136.401-.275.608-.38.658-.377 1.392-.579 2.131-.738 1.519-.323 3.122-.355 4.712-.36l.64-.003c.21 0 .434-.01.631 0 .403.002.803.045 1.196.116a8.5 8.5 0 0 1 2.256.775l.48.252c.156.088.307.182.462.272Z" data-color="4"></path>
                            <path fill="#f20500" d="M125.209 111.438q.017.123.027.25c.013.299.017.602-.036.889-.043.225-.037.453-.071.674-.02.149-.061.296-.08.442-.01.089-.019.174-.038.261-.062.22-.156.427-.256.626-.137.268-.334.493-.532.717-.077.098-.173.182-.26.273-.098.081-.187.172-.292.246-.288.222-.578.449-.902.654-.42.262-.87.52-1.367.685a4.3 4.3 0 0 1-.758.158c-.209.03-.425.077-.638.041-.17-.026-.323-.063-.497-.063a27 27 0 0 1-2.023-.11l-.992-.088-.5-.041-.252-.019c-.02-.001-.141.002-.166-.011.385.198.765.407 1.123.632q.168.106.349.195c.418.208.905.403 1.388.447.217.018.398.098.609.155.273.076.563.102.853.107.21.002.413-.036.622-.052.197-.018.392-.025.593-.038q.183-.007.363-.042l.361-.06c.364-.05.714-.158 1.061-.288a6.5 6.5 0 0 0 2.221-1.372c.107-.108.221-.21.32-.328l.15-.175q.069-.093.132-.19c.111-.162.182-.348.27-.52.227-.497.427-1.003.47-1.532.029-.336.084-.671.045-.999-.041-.347-.117-.67-.19-1-.074-.326-.138-.646-.235-.961a3.4 3.4 0 0 0-.2-.476 20 20 0 0 1-.41-.882c-.203-.466-.497-.882-.79-1.285-.194-.268-.417-.513-.614-.777-.04-.053-.091-.111-.117-.173.091.112.109.282.171.41.101.209.151.442.251.646.206.415.455.814.599 1.251.153.468.189.954.208 1.419.007.107.017.206.034.306Z" data-color="4"></path>
                            <path fill="#f20500" d="M111.949 112.131q.073-.128.151-.256c.043-.077.105-.142.155-.214.053-.07.103-.142.166-.202l.178-.187.186-.145c.216-.135.41-.313.656-.45.077-.05.165-.09.251-.133l.256-.131c.102-.054.193-.12.305-.162a4 4 0 0 1 .431-.153c.146-.048.295-.086.445-.125.403-.102.817-.148 1.231-.192.172-.025.345-.03.517-.046.172-.003.346-.015.517-.01.49.004.971 0 1.448.053.307.038.617.075.91.155.3.069.581.181.844.328.26.145.464.359.646.584.131.19.28.394.306.636.006.097.03.182.025.277q0 .136.024.279c.005.189.026.378.005.574a3 3 0 0 1-.069.571c-.035.187-.1.364-.17.541a3 3 0 0 1-.284.503c-.213.314-.495.599-.794.876q-.226.207-.463.41l-.238.206c-.019.016-.124.123-.156.136.495-.203.992-.385 1.481-.599a3 3 0 0 0 .452-.248c.257-.171.519-.394.734-.676a2.45 2.45 0 0 0 .455-.953c.036-.151.073-.29.114-.426l.107-.417c.041-.191.046-.397.054-.6a9 9 0 0 0-.03-.313 1.7 1.7 0 0 0-.056-.312c-.069-.302-.211-.578-.359-.846-.077-.123-.143-.255-.229-.369s-.167-.236-.259-.345a4 4 0 0 0-.766-.669c-.201-.153-.416-.263-.632-.374-.219-.093-.44-.188-.666-.253-1.043-.327-2.096-.393-3.127-.334-.348.023-.703.046-1.044.123-.218.046-.428.121-.64.186-.596.185-1.197.373-1.741.705-.345.219-.719.412-1.016.713-.081.073-.152.164-.225.245-.074.079-.141.17-.205.26-.14.176-.23.367-.348.547-.198.377-.394.743-.514 1.145-.039.103-.058.212-.078.319-.018.108-.043.212-.048.321-.048.416-.059.81-.066 1.224.007.642.207 1.265.502 1.8.091.182.218.34.337.498.062.077.134.146.199.22l.098.108.108.099c.057.054.126.11.171.176a1 1 0 0 1-.157-.207l-.066-.113q-.027-.06-.059-.113a1.7 1.7 0 0 1-.173-.363c-.045-.126-.094-.247-.136-.373-.197-.493-.355-1.032-.33-1.581.027-.586.244-1.13.511-1.606a3 3 0 0 0 .167-.324Z" data-color="4"></path>
                            <path fill="#f20500" d="M118.472 113.375a.3.3 0 0 1-.028.058c-.05.064-.086.131-.163.174-.055.035-.067.086-.091.134-.015.033-.049.052-.054.091-.004.023.001.052-.011.068-.028.046-.069.083-.106.118a.2.2 0 0 1-.087.055q-.046.021-.088.044c-.042.034-.091.052-.138.076a.3.3 0 0 0-.101.064c-.036.023-.07.058-.109.089-.101.078-.227.189-.375.241a.6.6 0 0 1-.219.017c-.059-.003-.13.019-.174-.038-.035-.045-.064-.084-.107-.101a5 5 0 0 1-.535-.184c-.087-.039-.183-.078-.274-.129-.047-.025-.099-.049-.145-.08l-.075-.045c-.006-.003-.053-.02-.052-.031l-.033.262-.02.294a1 1 0 0 0 .013.188c.035.212.141.434.317.531.08.039.116.13.176.209.08.097.184.167.297.206.081.032.17.029.254.045.079.016.154.044.231.07.094.035.193.039.291.062.146.041.299.035.451.026a2.6 2.6 0 0 0 1.041-.307c.107-.063.227-.117.313-.21.054-.06.096-.132.141-.196.122-.182.268-.336.319-.547.036-.131.101-.242.106-.377-.003-.145-.018-.281-.028-.412-.003-.127.004-.246.002-.365-.006-.064-.029-.128-.051-.19a1.4 1.4 0 0 1-.093-.337c-.02-.175-.143-.329-.248-.458-.079-.085-.178-.149-.255-.214-.015-.014-.037-.026-.037-.048.036.027-.006.102.001.14.016.064-.036.153-.021.209.009.062.033.119.052.179.012.062.034.123.016.188-.024.139-.155.263-.257.362a.2.2 0 0 0-.045.07Z" data-color="4"></path>
                            <path fill="#f20500" d="M140.206 128.173c.282-.37.555-.749.812-1.147.45-.686.875-1.396 1.264-2.146.382-.753.722-1.543.962-2.368a9 9 0 0 0 .353-2.021c.022-.343.022-.696.018-1.008l-.015-.965a48 48 0 0 0-.105-2.599c-.039-.513-.092-1.003-.137-1.52a74 74 0 0 0-.44-3.97c-.23-1.708-.272-3.412-.044-5.066.096-.686.247-1.358.462-2.004l.173-.479.201-.465a13 13 0 0 1 .323-.629l.146-.244.125-.232.249-.464.178-.331c.069-.07-.035-.075-.087-.1l-.179-.066-.715-.258c-.237-.084-.47-.17-.725-.238l-.288-.078-.201-.047a21 21 0 0 0-1.581-.295c-1.036-.159-2.045-.274-2.998-.498a16 16 0 0 1-.926-.254 18 18 0 0 1-2.703-1.076 27 27 0 0 1-.874-.452l-.891-.48q-.9-.477-1.818-.923c-1.206-.583-2.438-1.142-3.702-1.617-1.025-.384-2.098-.696-3.149-.998-.842-.242-1.625-.429-2.529-.528-1.716-.186-3.496-.13-5.179.372a10.4 10.4 0 0 0-4.46 2.632c-.308.284-.57.609-.848.918q-.389.472-.766.955a25 25 0 0 0-1.422 1.996 13.7 13.7 0 0 0-1.14 2.174c-.078.191-.143.388-.211.582-.053.2-.124.394-.161.598-.008.048-.046.213-.072.385-.02.173-.042.349-.056.415.182-1.03.638-1.963 1.169-2.806a17.3 17.3 0 0 1 1.791-2.313q.601-.662 1.24-1.328a14 14 0 0 1 1.169-1.099l.154-.132.163-.121.327-.243c.106-.085.224-.154.338-.228l.343-.221a11.2 11.2 0 0 1 2.982-1.23c.928-.234 1.768-.262 2.695-.231l.227.006.228.017.458.031c.306.039.613.057.921.108l.462.066.461.083c.308.049.614.126.921.187.884.203 1.747.425 2.609.721.812.279 1.61.604 2.391.966.95.443 1.895.898 2.813 1.412q.515.289 1.024.584l1.029.605c.708.409 1.447.791 2.22 1.122a19 19 0 0 0 2.058.738c.24.071.479.13.717.187.952.217 1.886.349 2.785.503.449.077.89.16 1.317.26.106.026.214.049.317.079l.039.011.009.002h-.002l.005.002-.002.004v.002l-.017.033c-.055.113-.119.223-.167.34-.206.461-.39.931-.533 1.411a12.6 12.6 0 0 0-.437 1.979c-.1.667-.139 1.335-.142 1.994a21 21 0 0 0 .168 2.489c.068.576.16 1.162.24 1.705q.119.83.217 1.661c.129 1.11.233 2.221.329 3.334.061.716.098 1.441.125 2.166l.034 1.085.008.27v.256c.007.171-.002.341-.007.511-.052 1.441-.468 2.821-1.128 4.179a23 23 0 0 1-1.097 1.963 14 14 0 0 1-1.345 1.788 22 22 0 0 1-1.676 1.677 52 52 0 0 1-1.737 1.493c-.587.482-1.188.955-1.828 1.406-1.971 1.406-4.021 2.683-6.185 3.737-1.435.692-2.894 1.319-4.42 1.818-.309.098-.662.211-.977.291.333-.107.688-.19 1.041-.279.351-.095.706-.177 1.036-.286 1.082-.341 2.16-.686 3.2-1.139 2.125-.925 4.152-2.109 6.078-3.385a63 63 0 0 0 3.002-2.115c.967-.717 1.955-1.439 2.864-2.315q.62-.598 1.136-1.269Z" data-color="4"></path>
                            <path fill="#f20500" d="m136.675 160.556.458-.294a36 36 0 0 0 1.626-1.106c.21-.15.409-.318.61-.484q.293-.263.579-.532c.251-.246.515-.493.742-.763.141-.157.262-.32.396-.486.086-.107.176-.21.26-.319l.247-.332c.171-.216.313-.457.467-.688.388-.639.735-1.311.957-2.048l.12-.465c.046-.153.056-.316.086-.474.063-.316.065-.641.083-.963.001-.23-.024-.46-.038-.688-.021-.228-.074-.452-.116-.676a6.4 6.4 0 0 0-.466-1.275c-.122-.267-.28-.512-.432-.756-.167-.235-.333-.469-.523-.681a8.6 8.6 0 0 0-1.22-1.17 10.6 10.6 0 0 0-1.361-.939c-.19-.118-.397-.207-.595-.313-.204-.093-.404-.194-.604-.291a6.5 6.5 0 0 0-.963-.398c-1.326-.41-2.705-.571-4.056-.609a29 29 0 0 0-1.95.018q-.486.02-.968.05l-.485.032c-.038.003-.265.027-.318.023.817.063 1.63.139 2.387.257l.722.106c.85.122 1.779.276 2.643.417a6.4 6.4 0 0 1 1.072.296c.467.155.943.32 1.4.505.165.066.329.129.489.202l.242.105.235.122.22.119.212.133.21.135.2.148c.327.238.639.492.928.77.423.426.805.878 1.122 1.377.368.577.639 1.21.777 1.869.135.658.14 1.348.019 2.014l-.026.17c-.011.056-.029.112-.043.168l-.089.337c-.025.113-.076.221-.111.332-.04.11-.073.221-.115.33-.118.275-.213.558-.359.824-.388.762-.922 1.449-1.477 2.12-.355.436-.781.825-1.177 1.225-.425.42-.85.817-1.325 1.197a24 24 0 0 1-1.468 1.065l-.785.549c-.506.354-1.014.666-1.563.968-.85.466-1.689.943-2.553 1.369-.571.285-1.14.567-1.731.816-.119.05-.255.111-.379.15.257-.112.559-.167.819-.263.427-.152.862-.277 1.28-.452.853-.357 1.681-.79 2.507-1.199.886-.438 1.759-.847 2.618-1.317.195-.108.38-.223.565-.339Z" data-color="4"></path>
                            <path fill="#f20500" d="M169.116 108.578q-.085.007-.172.009c-.206.004-.415.018-.623.014-.164-.005-.325.035-.486.063-.108.018-.22.033-.326.063-.063.019-.122.044-.187.06-.165.04-.334.07-.5.111-.223.054-.45.088-.672.154-.184.053-.368.113-.551.172a4.4 4.4 0 0 0-.744.347c-.311.177-.596.39-.885.594-.141.102-.291.189-.434.286-.116.08-.225.173-.354.23-.104.045-.203.08-.294.152a5.8 5.8 0 0 0-1.337 1.411c-.057.088-.115.175-.164.268l-.075.139c-.006.011-.034.081-.048.091q.164-.12.33-.224.172-.1.345-.178a3 3 0 0 0 .216-.101c.244-.127.507-.258.709-.436.094-.078.201-.111.311-.157.147-.057.276-.142.408-.223.094-.061.173-.14.268-.199a2 2 0 0 1 .278-.149c.118-.051.224-.121.345-.167q.264-.11.523-.232.609-.273 1.251-.469c.145-.043.294-.079.437-.13.091-.033.178-.08.27-.115.258-.097.526-.154.786-.254.167-.067.347-.091.514-.161.178-.071.35-.148.536-.204.183-.057.368-.088.556-.128.1-.02.195-.052.293-.083.188-.058.373-.097.569-.117.303-.034.601-.109.901-.171.198-.04.395-.099.595-.13.04-.007.086-.018.127-.013-.087.017-.184-.029-.271-.034-.142-.008-.286-.051-.428-.051-.29.002-.581.053-.872.049-.312-.004-.62-.062-.933-.091a1.3 1.3 0 0 0-.209.001Z" data-color="4"></path>
                            <path fill="#f20500" d="M107.461 128.537c-.369-.592-.714-1.222-1.118-1.786-.316-.44-.59-.882-.942-1.288a51 51 0 0 1-.949-1.136 62 62 0 0 0-1.581-1.881c-.18-.205-.374-.4-.56-.603-.06-.064-.104-.137-.158-.205l.099.411c.336 1.309.892 2.613 1.651 3.736.372.548.793 1.042 1.225 1.536.413.473.801 1.031 1.282 1.435.523.438 1.119.748 1.676 1.14.111.079.209.171.317.253a7 7 0 0 0-.254-.562c-.199-.372-.465-.693-.688-1.051Z" data-color="4"></path>
                            <path fill="#f20500" d="M112.329 136.704c.038.242.116.469.213.693q.156.332.361.665l.106.175c.645-.409.43-.811.15-1.032-.268-.225-.376-.356-.83-.501" data-color="4"></path>
                            <path fill="#f20500" d="M112.165 134.811c-.01-.03-.022-.059-.028-.092-.024-.114-.058-.226-.07-.345-.008-.095-.063-.168-.105-.248-.028-.053-.046-.113-.086-.159-.024-.028-.055-.05-.075-.08-.051-.077-.089-.163-.135-.243-.062-.108-.093-.233-.158-.339l-.159-.266a1.4 1.4 0 0 0-.298-.33c-.149-.129-.328-.235-.481-.357-.076-.06-.133-.133-.195-.202-.05-.056-.121-.1-.135-.181-.011-.065-.019-.125-.059-.172a3.5 3.5 0 0 0-.945-.791l-.081-.043c-.006-.003-.053-.017-.054-.027.013.165.012.34-.016.522a1 1 0 0 0-.014.164c-.001.182.015.369.112.485.044.052.034.131.041.206a.56.56 0 0 0 .095.25c.033.053.092.087.129.137a.6.6 0 0 1 .085.155c.025.069.075.121.101.189.037.102.094.191.151.28q.2.31.385.628c.042.072.075.149.13.213.036.04.086.071.125.11.109.109.18.24.306.34.081.064.121.154.211.214.095.064.2.12.281.195.081.073.136.159.203.241.035.044.084.079.132.116a.75.75 0 0 1 .209.247c.076.146.218.264.331.395.077.086.177.163.246.255.014.018.035.037.035.062-.035-.038.008-.11 0-.159-.012-.079.02-.176-.001-.252-.041-.157-.151-.285-.184-.444-.036-.171-.003-.369-.007-.556a.4.4 0 0 0-.024-.116Z" data-color="4"></path>
                            <path fill="#f20500" d="m114.874 89.7-1.077.182-.458.081q-.208.036-.415.076c-.554.102-1.108.226-1.66.363-1.104.277-2.198.64-3.242 1.125-.813.383-1.589.813-2.323 1.326a11.2 11.2 0 0 0-2.026 1.811c-1.115 1.283-1.987 2.822-2.385 4.522a8.5 8.5 0 0 0-.23 2.169c.016.72.111 1.419.234 2.095.124.678.27 1.33.412 1.986l.441 1.973c.2.873.417 1.733.633 2.598.068.275.119.551.181.827l-.109-1.311a265 265 0 0 0-.294-3.158c-.101-1.057-.233-2.129-.328-3.183-.089-1.055-.106-2.093.113-3.072.198-.986.598-1.921 1.107-2.785.51-.838 1.12-1.614 1.826-2.297a12.5 12.5 0 0 1 2.346-1.802c1.65-.993 3.668-1.628 5.549-2.186l.435-.13.216-.065c.036-.011.025-.011.036-.016l.02-.012q.084-.052.244-.123l.027-.012c.01-.005.019-.009.019-.001l.016.03a.5.5 0 0 1 .037.261.6.6 0 0 1-.021.118c-.007.023-.006.038-.02.07l-.052.114a2 2 0 0 1-.114.227q-.059.114-.133.223c-.379.593-.906 1.127-1.458 1.646-.312.287-.633.581-.942.875l.8-.544q.405-.262.794-.544.395-.286.759-.622c.242-.224.472-.469.669-.745q.077-.1.143-.212c.046-.072.091-.14.135-.239.041-.092.096-.181.127-.277q.051-.142.099-.288l.059-.291c.018-.098.02-.195.031-.294.012-.097.01-.201.013-.304l.003-.155c-.015-.031-.049-.036-.072-.056l-.162.026Z" data-color="4"></path>
                            <path fill="#f20500" d="M106.867 116.619c.092.172.178.348.282.513q.158.246.323.489l.166.241.185.228.377.45c.128.147.274.281.411.42.143.135.274.28.429.402.307.246.598.508.933.718l.505.343c-.078-.548-.369-.956-.696-1.345a4 4 0 0 0-.268-.268c-.094-.084-.18-.176-.274-.257-.183-.167-.384-.307-.557-.446l-.466-.384c-.071-.06-.143-.115-.209-.174l-.195-.176a8 8 0 0 0-.427-.35c-.161-.118-.317-.257-.52-.404Z" data-color="4"></path>
                            <path fill="#f20500" d="M105.454 111.159q-.021-.14-.036-.284l-.025-.255-.01-.258q-.01-.257-.006-.511a10 10 0 0 0-.032-.8l-.011-.27q.001-.136-.006-.27c-.008-.107-.025-.209-.027-.317 0-.139-.005-.278.004-.416l.03-.415c.015-.186.026-.371.058-.555.031-.184.063-.367.085-.553.029-.309.101-.613.155-.918l.119-.651c.04-.216.062-.437.108-.655.058-.282.1-.569.153-.855.062-.283.124-.568.195-.853.082-.275.19-.544.29-.816.083-.219.163-.446.293-.642a5 5 0 0 0 .292-.465c.169-.323.32-.658.5-.976l.256-.487c.087-.161.181-.318.27-.478.088-.154.17-.311.26-.465l.272-.457c.091-.153.174-.312.271-.461l.141-.229c.011-.018.069-.133.092-.152l-.541.425q-.264.217-.535.415a3 3 0 0 0-.328.268 9 9 0 0 0-.546.547 4 4 0 0 0-.454.636c-.118.197-.262.344-.4.523-.18.233-.348.485-.475.756-.096.194-.161.396-.251.591-.087.183-.162.37-.256.549-.109.221-.203.447-.296.675a8 8 0 0 0-.382 1.035l-.186.615c-.056.207-.104.416-.156.624-.112.415-.177.84-.259 1.262a8 8 0 0 0-.114.868q-.008.14-.008.277l.01.279c.005.262-.006.521-.006.78.011.259.024.519.056.776q.026.248.056.498c.019.166.04.331.075.493.034.171.083.337.132.503q.072.248.134.501l.244 1c.039.178.117.342.183.511q.099.242.178.484c.079.242.118.32.171.487.158.518.423.993.668 1.463q.273.454.552.898c.038.06.086.126.11.193-.084-.128-.106-.301-.156-.443-.083-.232-.12-.481-.21-.706-.094-.229-.175-.466-.269-.696-.045-.117-.092-.232-.131-.35a7 7 0 0 1-.096-.361c-.132-.516-.135-1.046-.171-1.563a3 3 0 0 0-.032-.347Z" data-color="4"></path>
                            <path fill="#f20500" d="M98.967 99.089c.149-.364.346-.717.477-1.07.092-.279.239-.528.291-.814q.09-.39.195-.776c.065-.214.116-.431.168-.648.056-.215.095-.438.133-.666.027-.15.035-.307.048-.466.004-.05.024-.093.034-.14l-.211.148c-.673.478-1.254 1.099-1.576 1.817-.163.349-.237.719-.312 1.093-.06.359-.201.738-.141 1.113.027.202.098.401.184.596l.258.576c.033.076.047.152.076.228.064-.108.128-.215.172-.321.101-.221.124-.449.205-.67Z" data-color="4"></path>
                            <path fill="#f20500" d="M98.969 104.337c-.038.284.131.525.35.745l.084.086c.665-.33.501-.492.272-.593-.229-.099-.303-.165-.706-.238" data-color="4"></path>
                            <path fill="#f20500" d="M99.36 103.276q-.002-.025.006-.051c.018-.062.023-.123.064-.186.031-.051.011-.094.005-.14-.004-.03.004-.063-.013-.092-.01-.017-.03-.033-.034-.051-.012-.047-.009-.095-.016-.142-.008-.064.016-.13.008-.194a3 3 0 0 1-.012-.16c-.004-.076-.05-.147-.099-.22-.063-.094-.168-.186-.232-.283-.031-.048-.04-.097-.054-.146-.012-.04-.047-.08-.015-.121.026-.033.053-.063.047-.096a1.6 1.6 0 0 0-.242-.558l-.067-.092-.038-.047s-.032-.026-.026-.031a2 2 0 0 1-.326.227 1 1 0 0 0-.108.071c-.11.084-.209.18-.19.269.008.04-.045.075-.082.115a.22.22 0 0 0-.06.157c0 .038.03.073.035.11q.006.053-.012.105c-.016.044-.002.085-.017.129-.019.065-.014.128-.009.192l.033.444c.003.05-.006.102.019.15.015.031.047.059.067.089.054.084.058.174.134.254.049.051.049.11.108.159.063.052.131.1.183.153.05.052.073.108.106.163.018.029.05.055.083.081q.091.074.117.16c.03.09.115.168.195.245.052.052.127.098.17.15.009.011.024.021.018.035-.023-.022.035-.063.04-.09.008-.045.064-.099.063-.141-.003-.086-.058-.164-.041-.254.019-.097.113-.202.177-.302a.1.1 0 0 0 .018-.063Z" data-color="4"></path>
                            <path fill="#f20500" d="M132.722 119.347c.303-.635.567-1.333.664-2.05.075-.557.132-1.104.065-1.665a14 14 0 0 0-.268-1.519 11 11 0 0 0-.845-2.37c-.122-.249-.263-.486-.404-.723-.045-.075-.073-.156-.111-.234l.009.421c.041 1.341.105 2.676.182 3.914.039.607.093 1.189.094 1.781a8 8 0 0 1-.071.864c-.04.288-.077.573-.092.855-.029.609.016 1.237-.132 1.883-.027.13-.084.246-.122.374l.225-.204q.108-.108.203-.223c.263-.329.422-.72.603-1.103Z" data-color="4"></path>
                            <path fill="#f20500" d="M125.643 125.051c-.475.043-.902.231-1.366.452l-.182.084c.326.697.759.517 1 .258.124-.125.216-.214.302-.326.086-.11.165-.245.246-.469Z" data-color="4"></path>
                            <path fill="#f20500" d="M127.503 124.964q.043-.017.091-.027c.113-.022.221-.059.341-.067.095-.007.168-.061.245-.103.052-.028.111-.047.157-.088.027-.024.049-.055.078-.075.076-.051.16-.09.239-.136.107-.062.226-.099.331-.164l.259-.164c.124-.076.22-.192.315-.308.123-.152.217-.338.331-.496.055-.079.125-.138.189-.205.052-.054.091-.127.169-.147.063-.017.123-.028.167-.071a2.8 2.8 0 0 0 .598-.87q.035-.081.063-.167l.028-.086c.002-.007.006-.055.016-.058a1.8 1.8 0 0 1-.504.06 1 1 0 0 0-.158.005c-.174.018-.348.046-.445.149-.044.046-.119.043-.191.052a.5.5 0 0 0-.228.104c-.047.035-.073.095-.117.134a.5.5 0 0 1-.141.089c-.065.026-.111.077-.175.103-.096.04-.176.099-.26.157a14 14 0 0 1-.588.391c-.067.043-.143.072-.201.129-.037.036-.065.088-.101.127-.102.108-.227.177-.321.302-.061.081-.146.121-.203.21-.061.093-.116.194-.187.277-.07.08-.154.133-.233.198-.042.035-.078.081-.114.127a.75.75 0 0 1-.242.203c-.143.071-.262.204-.393.314-.086.074-.164.172-.258.234-.019.013-.038.033-.062.031.039-.032.108.015.156.01.079-.006.171.028.247.01.154-.037.285-.137.442-.166.168-.031.361.003.547.008a.4.4 0 0 0 .114-.022Z" data-color="4"></path>
                            <path fill="#f20500" d="M81.083 110.312c-.288.753-.561 1.53-.741 2.341a11 11 0 0 0-.286 2.49 11.8 11.8 0 0 0 .663 3.795c.192.561.402 1.109.614 1.65q.316.808.648 1.615c.745 1.804 1.59 3.563 2.754 5.17.387.53.811 1.023 1.26 1.495.147.147.278.303.419.453-.173-.272-.346-.539-.503-.817-1.54-2.637-2.355-5.58-3.353-8.483-.48-1.411-.962-2.767-1.147-4.162a10 10 0 0 1-.028-2.07 26 26 0 0 1 .282-2.082c.248-1.477.54-2.902 1.003-4.358.095-.29.209-.576.312-.864-.251.389-.502.781-.722 1.182-.464.841-.825 1.738-1.176 2.646Z" data-color="4"></path>
                            <path fill="#f20500" d="M81.141 90.07c.165-1.099.358-2.189.574-3.324l.089-.441c-.438.15-.708.465-.861.834-.153.37-.185.793-.167 1.148.02.355.031.623.078.894.043.269.123.545.287.888Z" data-color="4"></path>
                            <path fill="#f20500" d="M81.505 94.28q.046.098.088.202c.096.245.21.485.296.731.069.194.186.364.289.537.069.117.131.24.212.348.048.064.103.12.147.188.112.173.213.354.318.529.143.236.25.484.385.718q.166.291.315.585c.141.279.304.536.459.801.199.344.408.686.545 1.062.067.185.101.378.131.572l.036.238c.006.08.005.16-.012.239-.027.126-.069.236-.071.364a8 8 0 0 1-.254 1.483q-.094.363-.198.732l-.103.371-.051.188c-.004.015-.018.108-.033.124q.339-.37.705-.714.115-.108.216-.229c.236-.283.47-.636.552-1.022.038-.172.123-.31.189-.478.045-.108.073-.224.098-.341q.028-.176.04-.354c.002-.172-.018-.34-.036-.507a5 5 0 0 1-.013-.238 5 5 0 0 1-.014-.237c-.001-.098-.017-.192-.033-.286l-.046-.283a4 4 0 0 0-.211-.816 12 12 0 0 0-.779-1.716c-.099-.181-.19-.369-.307-.536-.075-.106-.165-.201-.243-.304-.222-.287-.402-.593-.64-.86-.153-.171-.265-.371-.422-.536-.166-.175-.334-.34-.484-.528-.148-.186-.267-.387-.39-.588-.067-.107-.143-.205-.217-.306a2.7 2.7 0 0 1-.346-.628c-.136-.351-.307-.691-.432-1.057-.081-.241-.176-.486-.22-.742-.009-.052-.025-.111-.018-.163.025.111-.037.236-.038.35 0 .184-.046.375-.021.561.047.379.184.74.273 1.105.096.391.146.795.245 1.189q.036.133.091.253Z" data-color="4"></path>
                            <path fill="#f20500" d="M133.127 75.267c-1.041-.829-2.059-1.718-3.101-2.541-.813-.643-1.564-1.293-2.401-1.911a137 137 0 0 1-2.283-1.738 204 204 0 0 0-3.8-2.911c-.426-.318-.86-.618-1.292-.928-.137-.098-.262-.209-.395-.312l.497.614c1.601 1.945 3.388 3.855 5.361 5.529.963.818 1.964 1.563 2.992 2.301.983.707 2.014 1.52 3.067 2.115 1.144.646 2.281 1.096 3.408 1.696.226.119.44.26.662.388a15 15 0 0 0-.828-.811c-.598-.534-1.26-.99-1.888-1.491Z" data-color="4"></path>
                            <path fill="#f20500" d="M142.896 90.048c0 .467-.002.93.038 1.398.014.468.068.942.091 1.427l.024.38c.383-.198.566-.512.634-.844.053-.333-.015-.683-.102-.967-.208-.563-.256-.866-.685-1.393Z" data-color="4"></path>
                            <path fill="#f20500" d="M142.852 86.516a3 3 0 0 1-.038-.18c-.035-.218-.079-.437-.111-.655-.022-.174-.094-.334-.152-.498-.037-.11-.069-.226-.128-.327-.034-.061-.075-.116-.104-.18-.074-.164-.135-.334-.204-.499-.104-.219-.177-.449-.283-.668-.084-.183-.183-.359-.278-.537a3.7 3.7 0 0 0-.492-.701c-.12-.143-.248-.278-.376-.413-.13-.133-.27-.258-.396-.391-.128-.129-.23-.277-.351-.411-.098-.109-.215-.204-.278-.339-.05-.108-.093-.209-.171-.301a8.6 8.6 0 0 0-.999-.928c-.171-.136-.353-.258-.533-.379a12 12 0 0 0-.28-.169l-.143-.081c-.011-.007-.086-.035-.095-.051.137.25.263.506.346.775q.04.126.092.242c.117.276.258.561.451.769.089.093.122.212.174.329.071.15.161.289.259.421.071.095.165.167.24.258.071.086.137.174.186.276.062.121.149.224.212.344q.071.134.154.258l.157.257c.12.2.25.394.362.6l.333.616c.071.141.125.293.21.427.054.086.123.164.18.249.16.24.253.509.426.747.113.153.159.336.272.49.114.165.247.32.339.499.094.176.162.36.241.543.044.097.097.189.146.284.098.183.17.366.225.564.084.307.205.605.324.908.074.201.159.401.218.608.012.042.031.089.027.133-.03-.09.023-.197.022-.291-.003-.151.047-.31.031-.461-.04-.306-.135-.605-.164-.913-.045-.327-.003-.668-.014-1.006a1 1 0 0 0-.035-.22Z" data-color="4"></path>
                            <path fill="#f20500" d="M153.492 138.094q-.144-.093-.289-.192a31 31 0 0 0-1.06-.653c-.275-.175-.584-.292-.882-.425a8 8 0 0 0-.614-.244c-.123-.043-.245-.074-.37-.113l-.48-.164c-.16-.054-.323-.101-.484-.149a23 23 0 0 0-.651-.192 7 7 0 0 0-.658-.168c-.369-.084-.739-.147-1.109-.214a14 14 0 0 0-.792-.098c-.264-.018-.527-.036-.792-.045-.688-.024-1.367.009-2.048.032-.335.016-.672.01-1.007.022-.272.008-.549.033-.819.013-.217-.017-.415-.037-.637-.024a37 37 0 0 0-3.733.389l-.598.098-.3.052c-.024.004-.164.037-.197.036.514.03 1.026.072 1.509.137q.227.031.46.051c.542.046 1.141.086 1.699.047.251-.016.47.016.714.035.317.029.642.025.963.024.233-.002.459-.03.69-.031.218-.001.435-.001.651.016.263.019.527.012.788.037l1.172.083a23 23 0 0 1 2.697.358l.897.195c.19.041.383.065.573.105.535.122 1.055.291 1.581.443.169.051.339.104.505.168q.247.1.499.181c.179.056.349.122.524.182q.262.09.519.209c.346.148.663.342.994.526.17.107.341.2.516.296.17.091.323.202.48.307q.118.08.232.166l.223.185q.703.571 1.357 1.204l.415.437c.143.144.262.306.39.465.05.065.112.137.153.209-.112-.138-.179-.324-.272-.475a11 11 0 0 0-.469-.728 11 11 0 0 0-.595-.655c-.216-.201-.417-.417-.635-.614a13 13 0 0 1-.333-.331l-.338-.321c-.22-.222-.458-.419-.695-.625-.107-.096-.226-.166-.341-.245Z" data-color="4"></path>
                            <path fill="#f20500" d="M72.635 118.161q.115.037.232.08c.274.1.555.184.822.286.211.081.433.121.65.172.145.035.291.078.435.103.087.015.171.022.257.042.22.052.437.115.649.179.287.085.557.202.828.307.114.042.223.094.333.143.11.05.222.096.328.156.308.158.619.301.928.468.404.209.806.434 1.192.697q.28.202.539.434c.143.12.298.237.411.389.092.12.171.233.28.343l1.245 1.262.606.609.308.3.157.149c.012.012.093.076.104.097a13 13 0 0 1-.471-.984 4 4 0 0 0-.143-.304c-.179-.35-.401-.727-.676-1.025-.124-.133-.201-.277-.298-.428a4 4 0 0 0-.45-.547c-.121-.122-.253-.227-.379-.342a7 7 0 0 1-.344-.339c-.14-.139-.29-.264-.435-.399q-.163-.15-.334-.291-.175-.135-.356-.267a10 10 0 0 0-1.805-1.042 5 5 0 0 0-.661-.262c-.144-.04-.29-.067-.434-.099-.405-.092-.798-.198-1.199-.243-.258-.03-.51-.094-.764-.113-.269-.02-.53-.033-.797-.07a7 7 0 0 1-.777-.163c-.137-.035-.273-.057-.411-.087a3.5 3.5 0 0 1-.766-.25c-.387-.174-.777-.346-1.144-.574a4 4 0 0 1-.693-.52c-.042-.042-.093-.088-.126-.138.093.089.141.23.226.327.132.163.255.338.413.478.327.281.711.477 1.073.689.389.227.765.464 1.166.663.092.045.184.079.277.111Z" data-color="4"></path>
                            <path fill="#f20500" d="m98.021 71.761-.377.218c-.451.259-.899.542-1.336.821-.347.218-.67.484-.988.752l-.323.27a9 9 0 0 0-.308.286c-.121.115-.225.238-.343.356l-.23.227-.224.235a10 10 0 0 0-.439.477c-.386.435-.761.875-1.096 1.356-.138.2-.277.4-.403.609l-.193.31-.181.318a10 10 0 0 0-.816 1.903c-.275.855-.418 1.742-.49 2.624l-.051.65c-.011.216-.029.433-.036.649-.013.349-.003.706-.037 1.05a8 8 0 0 0-.056.811c-.006 1.08.023 2.151-.05 3.205-.021.254-.035.509-.071.761-.016.126-.027.254-.047.379l-.064.375c-.018.127-.046.25-.076.374l-.085.372-.11.368c-.009.029-.053.206-.073.243.316-.57.574-1.177.796-1.766q.097-.28.183-.572c.185-.685.31-1.466.324-2.194.008-.328.053-.608.089-.922.044-.409.062-.827.073-1.239.012-.297-.007-.589.009-.881q.008-.207.023-.413l.045-.408.061-.492c.02-.164.039-.327.075-.486l.071-.359c.025-.119.056-.236.082-.354.049-.237.12-.468.185-.704a12.2 12.2 0 0 1 1.428-3.076c.207-.324.439-.639.662-.953.137-.205.283-.402.426-.603.425-.552.912-1.048 1.393-1.554a7 7 0 0 1 .489-.469c.166-.155.34-.299.503-.453.348-.325.694-.632 1.078-.928.382-.289.779-.552 1.189-.806l.637-.415c.411-.267.825-.498 1.273-.716.693-.337 1.374-.69 2.07-1.01.462-.21.916-.433 1.389-.623.095-.038.203-.086.303-.114-.205.087-.448.117-.658.184-.343.109-.696.186-1.033.31-.689.254-1.36.572-2.037.858-.725.306-1.446.578-2.155.911a7 7 0 0 0-.466.246Z" data-color="4"></path>
                            <path fill="#f20500" d="M152.85 92.775a2 2 0 0 1-.131-.067c-.155-.083-.321-.148-.475-.24-.121-.075-.261-.097-.396-.132-.09-.024-.181-.056-.273-.069-.055-.009-.11-.009-.165-.016-.142-.022-.283-.055-.425-.081a8 8 0 0 0-.572-.099c-.16-.021-.321-.027-.483-.035a3 3 0 0 0-.343.004 7 7 0 0 0-.34.053c-.294.042-.576.155-.858.227-.138.042-.278.074-.417.107-.113.028-.224.07-.34.076-.094.002-.181.001-.272.028a3.4 3.4 0 0 0-.511.189l-.248.111c-.081.04-.159.088-.237.132-.149.091-.301.172-.436.284l-.202.163-.099.084c-.008.007-.05.053-.064.056.223-.036.444-.062.657-.056q.103.007.202.006c.115-.003.234-.009.347-.026.115-.015.229-.03.331-.071.093-.035.186-.024.284-.023.13.007.255-.013.377-.042.088-.021.169-.066.259-.081q.125-.026.254-.031c.104-.004.204-.034.308-.028.156.004.307-.013.461-.026l.537-.014.537.025c.121.012.241.038.363.037.078 0 .157-.015.236-.015.219.012.436.044.659.051.144.004.283.046.431.043.155.003.307.007.464.025.157.014.298.071.447.112.079.023.161.034.245.046.158.03.302.085.449.151q.171.075.345.148l.356.136c.15.072.313.129.463.21.03.016.068.031.091.057-.068-.033-.101-.12-.156-.169-.088-.081-.156-.193-.25-.269-.201-.141-.426-.248-.629-.387-.221-.141-.407-.345-.628-.496a1 1 0 0 0-.155-.089Z" data-color="4"></path>
                            <path fill="#f20500" d="M163.773 114.676q-.069.013-.14.022c-.168.021-.335.059-.507.07-.136.007-.26.062-.387.105-.085.028-.175.049-.256.088-.049.022-.093.052-.142.073-.128.054-.26.098-.389.148-.175.065-.351.122-.523.195-.143.061-.282.129-.423.196q-.15.072-.289.161-.136.094-.268.195c-.233.168-.433.382-.651.564-.105.093-.217.176-.328.26-.089.068-.171.152-.275.197-.084.036-.163.066-.236.123q-.208.163-.397.349a5 5 0 0 0-.366.381c-.111.129-.223.255-.319.396l-.144.209-.07.107c-.005.009-.032.065-.045.071.2-.094.404-.178.61-.235q.099-.024.192-.058.165-.057.323-.135c.105-.052.206-.108.289-.182.076-.066.168-.088.261-.122a1.4 1.4 0 0 0 .338-.182c.075-.053.135-.125.211-.176a2 2 0 0 1 .223-.132c.095-.046.176-.113.273-.154.144-.064.275-.145.41-.224l.478-.258.489-.237c.112-.05.23-.089.337-.15.068-.039.131-.091.199-.132.195-.108.399-.189.592-.306.124-.075.263-.117.386-.2.131-.084.258-.17.397-.244.137-.075.282-.116.426-.171.077-.028.149-.068.222-.107.143-.072.288-.12.442-.157.238-.059.472-.143.708-.227.158-.047.313-.112.475-.153.033-.008.069-.022.103-.018-.07.021-.151-.021-.223-.022-.117-.001-.237-.04-.354-.035-.237.021-.47.086-.708.103-.254.024-.515-.019-.774-.015a1 1 0 0 0-.171.019Z" data-color="4"></path>
                            <path fill="#055357" d="M114.167 43.051q-.204.133-.419.262l-.771.452c-.26.15-.521.295-.796.446-.427.236-.823.54-1.214.845-.262.203-.534.412-.773.642-.144.137-.272.281-.417.42-.37.359-.738.728-1.078 1.121-.115.134-.226.263-.341.403a9 9 0 0 0-.914 1.326c-.285.507-.534 1.012-.784 1.494-.178.343-.343.678-.514.998q-.128.24-.264.47c-.091.156-.199.323-.298.486-.526.849-1.045 1.706-1.607 2.551-.276.416-.575.82-.866 1.231-.234.334-.454.689-.72.999a7 7 0 0 0-.597.755 20.3 20.3 0 0 0-1.83 3.397c-.229.576-.464 1.145-.599 1.771-.066.311-.1.636-.068.959q.026.245.107.475l.063.14c.033.06.065.12.072.145-.128-.388-.093-.787.015-1.138.107-.354.283-.673.475-.97l.373-.57c.433-.677.926-1.402 1.34-2.115.189-.321.403-.565.637-.841.3-.363.584-.751.866-1.141.203-.282.377-.576.582-.857q.288-.398.605-.776c.258-.307.489-.634.747-.943.386-.463.746-.942 1.108-1.434.208-.286.417-.571.62-.864.2-.279.422-.607.611-.927.38-.642.689-1.286 1.005-1.89.213-.41.443-.796.663-1.168.139-.241.272-.47.431-.695.47-.65 1.04-1.218 1.605-1.8.364-.375.791-.698 1.181-1.048.413-.371.833-.716 1.297-1.07.456-.348.923-.673 1.382-1.026.242-.191.468-.386.689-.597.434-.396.839-.789 1.266-1.2a7.6 7.6 0 0 0 1.543-2.233c.135-.264.213-.553.311-.827.064-.288.154-.564.195-.855.021-.116.04-.249.078-.361a2 2 0 0 1-.113.374 7 7 0 0 1-.147.359c-.143.382-.364.723-.559 1.069-.396.709-.878 1.398-1.49 1.961-.656.603-1.413 1.046-2.18 1.483a9 9 0 0 0-.507.314Z" data-color="2"></path>
                            <path fill="#055357" d="M77.397 55.863q.23.044.467.098l.857.165q.429.068.852.144c.442.075.897.09 1.342.11.3.017.602.038.899.036.178-.001.346-.015.524-.011.457.01.91.037 1.361.057.605.031 1.198.101 1.788.164.246.025.492.048.732.088.241.036.486.065.721.118q.254.05.508.092.248.056.497.107l.25.051.244.064c.163.043.328.081.491.127q.31.104.626.201c.206.074.406.161.611.24q.152.058.313.135l.318.147q.317.148.631.305c.412.206.812.439 1.211.671.323.188.665.361.955.597.233.188.441.363.695.533.971.64 1.928 1.302 2.842 2.013l.331.257.325.265c.22.173.428.359.642.539s.416.373.627.558l.306.292c.024.023.177.153.202.191-.379-.61-.783-1.209-1.168-1.785a12 12 0 0 0-.392-.53c-.486-.605-1.08-1.237-1.727-1.711-.292-.211-.506-.447-.767-.681a10 10 0 0 0-1.1-.843c-.278-.188-.569-.336-.851-.511a20 20 0 0 1-.785-.508c-.314-.212-.644-.395-.961-.6-.236-.156-.477-.299-.718-.442-.247-.143-.53-.28-.796-.419-1.274-.602-2.635-.912-3.968-1.097-.226-.037-.452-.057-.679-.084a7 7 0 0 0-.677-.052c-.287-.009-.571 0-.854.004-.8.001-1.584-.026-2.364.014-.502.027-1.009-.004-1.503.022-.523.027-1.03.051-1.557.031a16 16 0 0 1-1.56-.171c-.279-.04-.553-.063-.831-.089a19 19 0 0 1-1.592-.224c-.834-.15-1.68-.209-2.515-.23-.554-.012-1.102.03-1.649.067-.11.009-.236.025-.347.016.238-.022.496.041.731.062.385.024.76.125 1.139.168.775.092 1.567.177 2.338.36.825.197 1.609.493 2.425.741.187.057.372.098.558.137Z" data-color="2"></path>
                            <path fill="#055357" d="M46.58 97.719q.125.144.249.294c.279.367.564.741.8 1.14.19.31.417.604.633.905.141.205.278.421.43.619.091.119.187.228.273.352.222.318.43.654.647.981.292.442.554.903.858 1.347l.382.553.395.55c.189.261.398.507.605.752.22.237.436.475.669.701.604.598 1.254 1.092 1.906 1.604l.478.38q.236.194.48.378c.259.204.551.376.788.606.196.177.371.346.597.496.863.569 1.787 1.05 2.744 1.422.229.095.466.167.698.249.234.077.473.139.709.206.24.056.478.112.717.159l.363.06c.029.004.201.02.237.037-.566-.259-1.108-.55-1.576-.893l-.448-.314c-.53-.361-1.098-.764-1.664-1.084-.259-.138-.439-.331-.657-.513a6 6 0 0 0-.432-.357c-.148-.115-.296-.232-.448-.342-.219-.161-.445-.301-.662-.463-.198-.161-.396-.322-.576-.503a8 8 0 0 0-.342-.314 10 10 0 0 1-.334-.323l-.969-.995c-.733-.764-1.387-1.617-2.012-2.513-.21-.305-.411-.62-.634-.921-.143-.19-.3-.369-.445-.561-.409-.535-.778-1.107-1.217-1.63-.287-.334-.535-.708-.842-1.026-.158-.171-.324-.331-.489-.493a39 39 0 0 0-.496-.489c-.327-.331-.648-.66-.988-.98a10 10 0 0 0-.573-.457c-.393-.264-.743-.549-1.141-.808-.606-.412-1.264-.707-1.868-1.115-.399-.267-.797-.567-1.105-.981a1.7 1.7 0 0 1-.171-.278c.122.187.188.434.32.617.208.298.418.604.686.839.548.479 1.177.808 1.709 1.219.288.223.531.449.759.721.115.132.231.26.34.395l.32.413.299.358Z" data-color="2"></path>
                            <path fill="#055357" d="m67.964 78.819.176-.07c.213-.076.427-.159.643-.22.17-.049.333-.123.498-.189.11-.045.227-.081.335-.13.065-.03.125-.063.192-.088.171-.066.346-.124.52-.183.234-.08.472-.138.708-.208.196-.061.393-.113.59-.166.282-.072.555-.158.834-.239.362-.103.721-.216 1.092-.294q.274-.053.554-.082c.15-.016.304-.048.455-.033.121.011.231.019.354.018.471-.017.943-.018 1.414.007.227.013.455.024.682.048.114.01.228.018.341.034l.172.02c.014.001.096.005.113.012l-.801-.355a4 4 0 0 0-.253-.098 3.4 3.4 0 0 0-.978-.201c-.148-.001-.275-.037-.419-.06a3 3 0 0 0-.572-.028c-.139.003-.273.024-.409.037q-.194.015-.387.022c-.157.006-.312.027-.468.041-.235.015-.463.054-.695.093-.536.095-1.065.22-1.586.366-.176.051-.356.095-.527.16-.109.041-.214.091-.322.135-.302.127-.61.231-.9.381-.187.094-.385.171-.566.274-.19.112-.372.224-.565.333-.192.106-.385.201-.58.302-.103.054-.199.115-.297.176a7 7 0 0 1-.575.323c-.31.155-.601.343-.894.523-.194.12-.38.251-.577.367-.04.023-.084.053-.127.069.085-.053.197-.068.287-.107.148-.063.307-.1.452-.167.297-.135.583-.301.885-.425.323-.133.655-.221.983-.321a3 3 0 0 0 .216-.08Z" data-color="2"></path>
                            <path fill="#055357" d="M73.623 70.999q.025.056.048.116c.052.14.114.278.157.422.034.113.097.214.152.318.037.07.069.144.113.21.026.04.055.075.08.116.062.105.117.214.176.321.079.144.147.293.229.435l.208.353c.098.168.217.32.34.471.157.198.338.376.5.567.081.093.154.194.228.292.061.08.132.154.175.246.034.074.063.142.112.208q.283.376.605.715c.104.109.207.218.318.32l.166.152.085.075c.007.006.051.037.056.048a4 4 0 0 1-.198-.543 2 2 0 0 0-.054-.169 2.2 2.2 0 0 0-.284-.561c-.057-.073-.08-.154-.115-.239a1.7 1.7 0 0 0-.173-.31c-.048-.071-.109-.129-.158-.199a2 2 0 0 1-.127-.204c-.046-.086-.106-.162-.151-.249-.068-.129-.146-.249-.225-.371q-.27-.427-.527-.863c-.057-.099-.108-.202-.173-.296-.042-.06-.092-.114-.134-.173-.119-.168-.217-.347-.344-.51-.082-.105-.141-.225-.228-.327-.09-.109-.181-.213-.265-.327-.084-.113-.149-.235-.222-.355a2 2 0 0 0-.13-.181 2.4 2.4 0 0 1-.222-.362c-.101-.199-.225-.385-.346-.573-.077-.126-.166-.246-.239-.376-.015-.026-.034-.055-.041-.084.034.055.028.133.048.194.032.1.039.209.075.307.078.198.185.384.257.584.079.213.115.44.175.66q.02.075.052.143Z" data-color="2"></path>
                            <path fill="#055357" d="m79.512 59.017.116-.083q.214-.141.436-.266c.115-.066.226-.142.339-.214.076-.048.156-.094.228-.147.043-.032.083-.066.13-.093l.362-.206c.161-.096.336-.16.501-.249.137-.074.279-.136.421-.199a5 5 0 0 0 .297-.145l.297-.143q.382-.196.778-.371c.131-.054.269-.094.404-.139.11-.036.219-.084.335-.095.092-.01.176-.018.268-.042.174-.049.35-.087.525-.128q.263-.066.528-.118c.171-.033.34-.079.512-.106l.257-.049.129-.026c.01-.002.071-.019.085-.018a9 9 0 0 1-.658-.079 5 5 0 0 0-.577-.027 2 2 0 0 0-.376.046c-.109.023-.209.017-.318.024-.141.012-.284.04-.425.073-.102.023-.198.057-.297.089a4 4 0 0 1-.283.074c-.116.026-.229.062-.342.096a8 8 0 0 0-.505.163l-.574.227-.563.254c-.125.061-.252.122-.373.192q-.114.069-.225.142c-.206.142-.428.256-.622.412-.125.101-.264.186-.384.288-.125.114-.241.23-.368.341q-.19.161-.378.327c-.067.059-.127.121-.189.184a5 5 0 0 1-.356.355c-.198.175-.358.388-.531.582-.107.137-.205.279-.313.413-.022.027-.045.059-.072.082.046-.06.122-.1.176-.151.088-.083.19-.152.275-.237.182-.166.345-.354.537-.508.209-.16.426-.298.651-.426q.075-.046.143-.098Z" data-color="2"></path>
                            <path fill="#055357" d="m96.937 36.853-.066.182c-.082.215-.16.436-.248.647-.068.167-.118.344-.172.518-.037.116-.077.235-.108.353-.018.071-.032.14-.052.21l-.162.544c-.073.244-.153.483-.221.729l-.166.613c-.079.292-.134.585-.189.88-.07.384-.117.769-.175 1.155q-.044.285-.095.569c-.028.153-.041.313-.082.463-.033.12-.065.229-.085.356-.073.483-.122.98-.086 1.476.018.239.056.477.124.706q.05.172.123.334c.025.054.048.108.079.159.007.012.051.083.056.101a2.3 2.3 0 0 1-.114-.847c.007-.085.009-.17.018-.256.021-.301.078-.627.106-.939.014-.141.051-.26.088-.394.046-.174.084-.357.119-.539.025-.132.036-.263.059-.394q.034-.185.081-.368c.037-.148.062-.298.102-.446.059-.22.105-.441.159-.664a41 41 0 0 1 .392-1.541c.046-.173.102-.346.143-.521l.072-.335c.073-.314.167-.622.236-.936.043-.203.11-.403.151-.605.043-.214.083-.422.134-.637.05-.213.113-.419.173-.631.032-.112.056-.223.082-.336a8 8 0 0 1 .176-.638c.107-.332.189-.669.278-1.003.059-.221.108-.444.17-.665.013-.044.025-.096.044-.139-.026.097-.086.19-.122.283-.059.151-.137.294-.193.445-.113.309-.204.63-.322.937-.126.329-.279.639-.418.957a3 3 0 0 0-.084.218Z" data-color="2"></path>
                            <path fill="#055357" d="m86.826 35.991.089.064c.102.082.207.165.302.254.076.069.162.126.245.187.055.041.11.087.168.123.035.022.071.039.104.065.085.064.168.134.252.199.114.088.212.193.324.284q.139.114.27.236c.128.113.262.214.396.32.178.132.356.263.53.403.084.07.16.15.239.226.064.062.137.119.184.195.039.061.072.117.122.171l.568.612.277.293.14.146.072.073c.006.006.043.037.047.047a5 5 0 0 1-.185-.484 2 2 0 0 0-.058-.148 1.9 1.9 0 0 0-.294-.499c-.056-.065-.086-.137-.127-.21a2 2 0 0 0-.197-.266c-.052-.061-.112-.112-.168-.168a3 3 0 0 1-.148-.168c-.057-.072-.121-.135-.181-.203a5 5 0 0 0-.279-.295l-.343-.326-.352-.315c-.081-.069-.161-.142-.247-.205q-.084-.058-.17-.112c-.162-.103-.307-.226-.476-.317-.108-.058-.207-.134-.316-.188-.118-.055-.234-.103-.35-.162l-.336-.184q-.09-.046-.183-.085a3 3 0 0 1-.347-.167c-.175-.101-.368-.167-.553-.244-.125-.047-.253-.083-.376-.132-.025-.01-.054-.019-.076-.035.054.02.097.073.146.103.079.049.148.116.229.161.161.098.338.173.493.281.165.117.311.254.458.391q.051.045.105.082Z" data-color="2"></path>
                            <path fill="#055357" d="m93.612 29.536.012.107c.007.128.015.259.012.387 0 .1.012.202.021.303.006.068.007.137.019.204q.013.06.019.119c.008.105.01.211.016.316.008.142-.006.283-.001.425.005.118.001.237 0 .355 0 .169.012.336.023.504.018.219.043.438.057.659.005.109 0 .218-.002.327-.002.088.006.179-.015.266-.017.069-.034.132-.038.204a18 18 0 0 0-.022 1.23l.007.2.005.101c0 .008.007.056.004.066q.08-.246.184-.475a2 2 0 0 0 .059-.145c.063-.172.122-.364.133-.55.005-.083.034-.153.057-.232.029-.103.043-.211.053-.319.007-.078.002-.154.005-.232q.006-.11.022-.218c.013-.088.015-.177.026-.265.017-.132.023-.264.03-.397q.018-.463.019-.93c0-.105.002-.212-.007-.316-.006-.067-.019-.133-.027-.2-.028-.187-.032-.376-.074-.561-.028-.119-.036-.242-.068-.359-.036-.123-.079-.241-.111-.366l-.089-.369q-.026-.097-.061-.191a3 3 0 0 1-.115-.364c-.045-.195-.136-.376-.208-.56-.056-.119-.121-.233-.174-.352-.011-.024-.025-.05-.03-.077.025.051.018.118.032.173.022.089.024.184.049.27.042.18.112.355.141.539.028.197.029.393.025.59q.001.067.01.13Z" data-color="2"></path>
                            <path fill="#055357" d="m116.312 48.362-.181.007c-.216.004-.437.013-.654.012-.172 0-.346.021-.52.043-.116.015-.236.026-.351.046-.069.012-.134.032-.203.043-.178.031-.358.057-.535.095-.239.045-.476.088-.713.144-.195.052-.392.098-.585.155a8 8 0 0 0-.808.279c-.344.137-.675.293-1.01.445l-.501.212c-.136.056-.269.126-.41.167-.113.033-.216.062-.326.11-.421.18-.836.376-1.245.577-.195.099-.399.19-.588.324a1.1 1.1 0 0 0-.25.242.7.7 0 0 0-.084.155c-.007.013-.025.093-.031.11a.65.65 0 0 1 .277-.302c.115-.067.239-.108.362-.138l.239-.057c.286-.073.6-.162.878-.285.125-.055.243-.08.371-.116.167-.046.332-.109.496-.173.118-.046.228-.103.345-.151q.165-.066.334-.121c.137-.046.27-.099.406-.143q.305-.099.608-.205.706-.24 1.424-.429l.488-.121c.103-.027.203-.065.306-.09.29-.078.584-.127.876-.195.188-.042.382-.066.571-.104.2-.042.395-.084.6-.116s.407-.051.613-.078c.109-.013.215-.035.322-.056.207-.041.406-.076.617-.11a4.8 4.8 0 0 0 .944-.267 5 5 0 0 0 .575-.279c.038-.02.08-.046.12-.061-.081.045-.182.065-.267.096a4 4 0 0 1-.214.063 3 3 0 0 0-.215.054 6 6 0 0 1-.889.199c-.325.037-.645.024-.97.017q-.11-.002-.218.006Z" data-color="2"></path>
                            <path fill="#055357" d="M117.003 45.825q-.045.004-.091.006c-.109.002-.22.009-.33.003-.086-.004-.172.012-.257.023-.057.007-.117.01-.173.022-.034.008-.066.019-.1.024-.088.013-.178.021-.266.033-.119.015-.239.016-.359.031l-.298.037c-.142.017-.279.05-.417.086-.18.045-.355.107-.535.154-.088.023-.178.037-.268.054-.073.013-.145.036-.22.031-.06-.004-.114-.009-.174.001a9 9 0 0 0-1.001.221l-.16.048-.08.026c-.006.002-.043.019-.052.018.143.02.285.045.421.083q.064.017.129.029c.151.026.318.046.47.022.068-.011.13.003.198.011.089.01.178.004.267-.006.064-.007.125-.027.188-.036q.09-.013.18-.016c.073-.002.145-.016.218-.018.109-.003.217-.017.325-.031l.755-.093c.085-.01.172-.016.256-.034.054-.011.106-.03.159-.043.15-.037.303-.053.451-.099.095-.029.196-.039.29-.072.1-.036.196-.074.298-.104s.202-.048.304-.07q.08-.02.159-.048a2 2 0 0 1 .307-.075c.164-.026.323-.077.482-.122.106-.03.209-.07.316-.095.021-.005.046-.013.068-.013-.046.013-.1-.007-.148-.006-.077.002-.156-.015-.232-.009-.156.012-.31.05-.467.056-.168.007-.334-.019-.501-.031q-.057-.003-.111.002Z" data-color="2"></path>
                            <path fill="#055357" d="m108.492 43.536-.026.1c-.035.119-.067.241-.109.358-.034.092-.047.19-.066.285-.013.064-.031.129-.038.194-.004.039-.005.077-.012.116-.018.099-.041.198-.061.297-.027.133-.067.262-.095.395l-.071.33c-.035.157-.054.314-.074.473-.025.206-.037.414-.066.62a4 4 0 0 1-.062.301c-.019.081-.028.166-.065.241-.03.06-.058.114-.076.179l-.203.748-.096.362-.048.182-.023.092c-.002.007-.008.053-.015.061q.147-.195.304-.374.05-.056.094-.116c.102-.141.205-.305.257-.475.024-.076.065-.135.104-.203.051-.089.086-.186.117-.284.023-.071.032-.144.05-.215q.027-.1.063-.198c.029-.079.046-.162.074-.241.041-.119.071-.24.102-.362q.103-.424.195-.85c.02-.096.046-.192.059-.289.008-.062.009-.125.015-.187.018-.175.055-.346.063-.521.005-.113.03-.224.031-.337 0-.12-.003-.236.004-.356.006-.119.024-.234.038-.352q.009-.094.009-.187c.002-.121.014-.237.034-.357.031-.185.037-.374.05-.561.008-.124.006-.249.018-.373.002-.025.003-.054.011-.078-.003.054-.041.106-.056.158-.024.084-.067.164-.088.248-.041.173-.059.352-.106.523-.051.183-.131.355-.2.531q-.023.06-.036.121Z" data-color="2"></path>
                            <path fill="#055357" d="m84.52 50.184.094.071c.106.092.216.183.308.286.075.079.157.15.237.223.051.052.1.107.154.154.031.03.063.056.093.088.078.08.14.173.209.26q.062.093.119.188c.036.064.068.131.106.194q.088.161.162.339.108.252.243.511c.116.225.258.448.418.658.079.103.155.207.241.303.068.079.149.147.209.231.05.066.094.128.158.183.241.214.51.386.782.538q.198.109.401.202l.204.091.103.044c.008.003.059.019.068.028a5 5 0 0 1-.398-.397 3 3 0 0 0-.116-.126 4 4 0 0 0-.451-.412c-.071-.053-.119-.117-.172-.185-.071-.087-.15-.166-.225-.246-.057-.056-.115-.106-.169-.164-.047-.057-.094-.114-.131-.177-.048-.075-.098-.147-.138-.226-.058-.119-.117-.238-.173-.366-.131-.295-.242-.623-.399-.953a2.5 2.5 0 0 0-.181-.329c-.042-.068-.1-.124-.148-.186a3.3 3.3 0 0 0-.447-.483c-.109-.088-.208-.189-.325-.263-.123-.079-.246-.146-.371-.218l-.364-.219c-.066-.037-.134-.065-.202-.095a6 6 0 0 1-.383-.182c-.197-.105-.408-.175-.615-.25l-.416-.134c-.028-.01-.06-.019-.086-.035.061.02.112.073.167.103.09.049.17.118.26.164.183.097.378.175.552.286.188.117.347.268.508.41q.055.049.112.09Z" data-color="2"></path>
                            <path fill="#055357" d="m79.788 52.752.047.021c.054.03.11.059.159.097.039.03.086.042.131.06.03.012.058.028.09.035.019.004.039.004.057.011q.069.029.136.061c.062.026.115.069.175.097q.076.035.148.076c.07.037.146.059.223.084.101.029.207.051.309.084.05.017.094.044.14.068.037.02.081.031.107.067.021.028.039.055.068.073q.166.104.342.197.085.045.174.088l.09.042.046.02s.029.008.031.013a2 2 0 0 1-.092-.258l-.029-.081a.5.5 0 0 0-.168-.236c-.035-.023-.05-.063-.073-.1a.5.5 0 0 0-.115-.115c-.031-.024-.069-.036-.102-.055a1 1 0 0 1-.087-.066c-.033-.03-.072-.051-.107-.079-.051-.043-.107-.077-.164-.112a10 10 0 0 0-.405-.222c-.046-.023-.092-.05-.142-.067-.032-.01-.066-.014-.099-.022-.093-.021-.175-.063-.271-.072-.061-.006-.116-.031-.178-.033-.066 0-.131.005-.195 0-.063-.006-.123-.018-.184-.028q-.05-.006-.1-.003a.7.7 0 0 1-.187-.016c-.094-.022-.196-.012-.293-.011-.065.003-.131.016-.195.016-.013 0-.028.002-.04-.004.028-.002.052.031.077.041.042.016.078.052.12.064.084.028.176.031.258.067.088.04.164.107.241.168a.3.3 0 0 0 .055.03Z" data-color="2"></path>
                            <path fill="#055357" d="m71.948 82.881.093-.068c.113-.078.225-.161.342-.231.092-.056.172-.129.256-.197.056-.046.116-.088.169-.137.031-.03.059-.061.092-.089q.13-.105.263-.204c.118-.091.243-.168.363-.256q.15-.109.3-.212c.145-.097.279-.203.417-.308.18-.135.355-.278.546-.401q.143-.087.293-.159c.081-.039.16-.09.249-.108.071-.015.135-.03.204-.054q.391-.153.798-.263c.131-.034.263-.069.396-.095.067-.013.134-.03.201-.039l.102-.018c.008-.001.056-.014.067-.012l-.521-.107a2 2 0 0 0-.164-.023 1.7 1.7 0 0 0-.607.044c-.086.028-.167.027-.256.038a1.6 1.6 0 0 0-.337.09c-.079.029-.151.07-.227.105q-.108.047-.218.089c-.089.034-.173.078-.26.117-.132.055-.254.124-.378.193q-.427.247-.827.53c-.089.064-.183.124-.267.196q-.078.07-.153.143c-.145.133-.3.251-.434.393-.087.091-.187.169-.269.264-.087.1-.167.2-.258.297-.09.095-.186.181-.282.272q-.075.073-.142.151a3 3 0 0 1-.285.274c-.159.133-.305.281-.456.424-.101.093-.196.194-.303.282-.021.018-.045.04-.07.053.045-.04.114-.055.165-.085.085-.049.178-.084.259-.138.164-.112.313-.246.476-.357.175-.118.363-.212.545-.316q.062-.037.116-.079Z" data-color="2"></path>
                            <path fill="#055357" d="m36.327 115.249.179-.029c.214-.026.433-.049.646-.063.168-.013.338-.036.507-.055.113-.012.23-.021.342-.039.067-.011.132-.026.2-.03l.529-.036c.237-.02.473-.003.711-.014.197-.01.395-.005.593-.002l.84-.006c.365-.01.727-.006 1.094.001.18.009.36.033.54.052.146.016.296.02.437.062.113.031.216.062.334.081.227.033.451.077.676.119q.34.057.674.13c.215.047.434.082.648.135l.323.072.163.035c.013.003.091.015.107.022a14 14 0 0 1-.744-.372 6 6 0 0 0-.231-.108 9 9 0 0 0-.435-.177 4 4 0 0 0-.459-.126c-.138-.027-.251-.077-.381-.12a5 5 0 0 0-.527-.122c-.129-.024-.256-.036-.385-.05a6 6 0 0 1-.363-.056c-.146-.027-.294-.044-.441-.063q-.329-.044-.662-.071l-.774-.041-.775-.01c-.175.002-.352.003-.526.015q-.166.015-.331.034c-.311.042-.623.052-.929.113-.197.039-.4.059-.594.102-.205.052-.401.11-.607.158q-.306.068-.611.144-.162.042-.318.091a9 9 0 0 1-.607.181c-.323.08-.63.212-.939.322-.202.084-.398.177-.601.257-.041.016-.087.037-.13.047.088-.037.194-.044.284-.069.148-.042.301-.063.446-.108.301-.079.598-.187.902-.251.328-.062.65-.101.977-.125q.11-.012.218-.031Z" data-color="2"></path>
                            <path fill="#055357" d="m41.091 124.856.081-.123c.1-.145.202-.294.292-.443.075-.116.133-.245.195-.369.045-.082.08-.171.113-.258.019-.053.033-.104.054-.156.052-.134.117-.264.162-.4.064-.182.144-.357.205-.54l.142-.458c.069-.218.105-.438.149-.66.051-.288.08-.577.121-.865.02-.141.049-.282.075-.422.021-.114.033-.232.071-.341.031-.088.06-.167.078-.259a59 59 0 0 0 .198-1.058q.052-.252.098-.507l.057-.251.027-.127c.002-.01.011-.072.017-.084-.102.193-.225.383-.327.567a3.1 3.1 0 0 0-.355.87c-.022.107-.064.193-.103.293-.051.13-.087.266-.118.402-.023.098-.032.197-.052.295a4 4 0 0 1-.068.273c-.032.11-.053.222-.084.331a9 9 0 0 0-.128.491 18 18 0 0 1-.438 1.507c-.024.08-.041.163-.063.243-.058.231-.159.442-.223.67-.039.148-.114.283-.161.426-.054.15-.089.307-.162.451-.067.145-.145.284-.219.428-.037.078-.082.147-.12.224-.078.145-.16.281-.257.417-.168.195-.303.417-.468.616-.112.128-.218.264-.335.391-.024.026-.049.057-.077.078.05-.057.127-.092.184-.14.094-.078.201-.142.292-.223.097-.08.173-.181.255-.276a6 6 0 0 1 .249-.281c.177-.199.36-.388.542-.585q.055-.072.102-.147Z" data-color="2"></path>
                            <path fill="#055357" d="m41.078 102.306.153.075c.181.094.368.184.546.281.14.077.292.135.441.197.1.041.2.088.302.123.061.021.121.038.182.061l.467.185c.211.081.416.172.632.246q.269.093.543.175c.261.078.526.128.797.164.351.048.705.05 1.057.038.173-.006.346-.01.517-.022.139-.009.279-.032.418-.03.111.002.212.004.325-.011.429-.055.849-.139 1.265-.224q.301-.063.601-.132l.298-.072.15-.038c.012-.003.081-.025.098-.025-.261 0-.521-.006-.768-.024a5 5 0 0 0-.235-.011 5 5 0 0 0-.862.044c-.126.02-.237.012-.361.012-.16 0-.322.012-.482.025-.116.009-.227.03-.342.037a3 3 0 0 1-.322.004c-.13-.006-.259-.003-.387-.017-.191-.021-.38-.039-.572-.07a8.4 8.4 0 0 1-1.32-.326c-.147-.049-.295-.104-.444-.151l-.288-.082c-.27-.084-.532-.19-.803-.272-.175-.053-.345-.126-.519-.177-.185-.054-.365-.103-.549-.166-.182-.062-.358-.135-.537-.206-.095-.038-.19-.069-.287-.102a6 6 0 0 1-.541-.217c-.279-.129-.565-.238-.846-.355-.187-.077-.376-.147-.561-.231-.037-.017-.081-.034-.115-.057.081.035.153.104.228.149.123.073.236.164.362.231.256.14.527.255.782.395.273.15.528.32.793.478q.092.053.183.097Z" data-color="2"></path>
                            <path fill="#055357" d="m46.673 91.611.115.114c.133.141.272.281.395.429.098.116.21.22.318.328.072.072.141.151.216.22.045.041.091.079.133.123q.164.17.32.349c.142.157.269.325.405.488q.17.202.33.411c.152.199.31.387.465.582.2.254.405.503.588.772q.132.202.247.413c.062.114.137.226.177.35.033.099.065.188.106.286.169.369.324.745.456 1.128.063.185.127.371.18.56.028.094.058.188.081.283l.038.144c.003.011.026.078.026.094v-.748a4 4 0 0 0-.012-.231 3.2 3.2 0 0 0-.175-.837c-.048-.118-.065-.229-.096-.349a3 3 0 0 0-.171-.46c-.049-.108-.108-.208-.164-.311q-.075-.148-.147-.297c-.058-.121-.126-.237-.189-.355a6 6 0 0 0-.307-.516 14 14 0 0 0-.819-1.127c-.099-.121-.195-.248-.303-.361q-.105-.106-.212-.21c-.199-.196-.386-.404-.598-.584-.135-.117-.262-.247-.402-.356l-.445-.338c-.146-.117-.286-.238-.43-.357-.077-.063-.156-.119-.236-.177a6 6 0 0 1-.444-.347c-.226-.192-.469-.361-.707-.533-.158-.114-.321-.219-.478-.336-.032-.024-.069-.049-.097-.077.069.049.122.13.183.188.1.095.186.204.288.296.207.187.433.358.633.552.215.208.401.435.595.656q.067.075.137.142Z" data-color="2"></path>
                            <path fill="#055357" d="M41.557 96.445q.033.02.066.044c.076.056.157.107.23.168.057.049.127.078.193.112.044.023.088.051.134.068.028.011.056.018.084.03.07.032.138.069.207.103.093.046.181.101.275.145l.236.108c.112.052.229.084.349.115.154.042.315.062.47.097.077.017.151.041.225.064.06.018.125.028.18.062.044.027.083.053.132.069a4.5 4.5 0 0 0 .859.175l.142.012.072.004c.006 0 .041-.002.047.002a2.5 2.5 0 0 1-.295-.224 1 1 0 0 0-.087-.074 1.1 1.1 0 0 0-.346-.194c-.056-.016-.096-.052-.144-.085a1 1 0 0 0-.2-.099c-.05-.019-.104-.025-.154-.042a1 1 0 0 1-.138-.059c-.054-.028-.113-.045-.167-.074-.081-.043-.164-.076-.249-.11a18 18 0 0 1-.581-.253c-.065-.03-.128-.066-.195-.09-.043-.015-.089-.023-.133-.037-.122-.041-.237-.099-.362-.134-.081-.022-.154-.063-.237-.082-.087-.021-.173-.038-.259-.065-.085-.026-.162-.065-.244-.1a1 1 0 0 0-.134-.044 1.3 1.3 0 0 1-.247-.104c-.123-.066-.257-.116-.388-.167-.086-.036-.177-.064-.262-.104-.017-.008-.038-.015-.052-.029.038.016.06.062.091.088.051.042.091.1.144.139.11.077.234.134.341.214.116.085.212.197.319.294q.037.032.077.057Z" data-color="2"></path>
                            <path fill="#055357" d="m36.312 127.25.057-.078c.07-.092.131-.192.205-.282.06-.071.094-.157.135-.239.027-.055.059-.109.081-.166l.035-.103q.054-.131.112-.262a6 6 0 0 0 .145-.354c.038-.099.067-.202.097-.303q.033-.11.054-.22.016-.111.029-.224c.027-.194.015-.392.025-.584q.004-.143.014-.285c.004-.077.001-.156.017-.231.014-.06.029-.115.031-.178a3 3 0 0 0-.011-.361 3 3 0 0 0-.043-.357c-.021-.113-.037-.227-.072-.338l-.049-.165-.026-.082c-.002-.007-.019-.044-.018-.053a3 3 0 0 1-.117.554c-.033.15-.065.311-.063.462.002.068-.018.127-.035.191a1.2 1.2 0 0 0-.042.258c-.004.062.005.125-.002.186a2 2 0 0 1-.027.174c-.015.07-.017.141-.038.21-.029.103-.045.207-.065.312l-.085.361-.106.355c-.027.079-.062.156-.083.238-.014.052-.02.106-.033.158-.044.144-.099.284-.142.43-.027.094-.074.182-.097.278-.029.101-.056.199-.093.299-.034.1-.089.187-.137.281a1 1 0 0 0-.066.154 1.7 1.7 0 0 1-.157.277 9 9 0 0 0-.27.428c-.064.091-.12.19-.189.28-.014.018-.028.041-.046.055.028-.041.084-.06.12-.092.06-.053.134-.092.191-.147.11-.12.204-.255.313-.375.113-.132.255-.238.373-.368a1 1 0 0 0 .073-.092Z" data-color="2"></path>
                            <path fill="#055357" d="m74.985 162.814.001-.119c.005-.141 0-.286.012-.427.009-.112-.008-.224-.018-.336-.007-.075-.009-.152-.021-.226l-.025-.131c-.016-.115-.026-.231-.04-.347-.017-.155-.03-.31-.052-.465q-.028-.193-.062-.385a4 4 0 0 0-.133-.536c-.066-.23-.161-.451-.236-.677q-.057-.167-.106-.336c-.028-.091-.064-.181-.078-.276-.01-.076-.018-.145-.041-.22a8 8 0 0 0-.316-.832c-.059-.13-.116-.261-.183-.386l-.1-.188-.052-.094c-.004-.007-.033-.049-.034-.061q.044.273.058.535.002.083.01.165c.02.191.048.399.109.583.028.082.03.161.04.246.011.111.036.221.066.329.021.078.055.15.076.229q.03.11.05.221c.016.091.044.178.057.27.021.136.052.268.081.403l.094.469.08.472c.016.107.026.216.049.321.014.067.036.133.051.201.039.19.063.382.107.572.028.122.037.249.07.37.032.129.065.254.091.386.027.13.035.261.05.393q.013.105.036.208c.024.134.036.263.041.4.009.211.031.422.053.632.01.139.03.278.037.419.001.028.005.061 0 .089-.005-.062.025-.126.032-.186.011-.099.043-.196.051-.294.011-.201-.002-.405.011-.606.011-.215.058-.426.08-.64q.007-.073.006-.144Z" data-color="2"></path>
                        </g>
                    </svg>